<svg xmlns="http://www.w3.org/2000/svg" width="19.232" height="20" viewBox="0 0 19.232 20">
  <path id="União_86" data-name="União 86" d="M-670.084-694.347a4.561,4.561,0,0,1,1.168-3.1,4.573,4.573,0,0,1,3.479-1.416,4.444,4.444,0,0,1,4.668,4.516,4.547,4.547,0,0,1-1.174,3.1,4.6,4.6,0,0,1-3.494,1.416A4.434,4.434,0,0,1-670.084-694.347Zm2.8-1.719a2.517,2.517,0,0,0-.611,1.69,2.376,2.376,0,0,0,2.485,2.473,2.392,2.392,0,0,0,1.846-.752,2.524,2.524,0,0,0,.611-1.69,2.376,2.376,0,0,0-2.485-2.474A2.39,2.39,0,0,0-667.283-696.066Zm-11.3,4.535a.3.3,0,0,1-.228-.506l14.054-15.626a1.363,1.363,0,0,1,.859-.393l1.688-.036c.468,0,.48.343.292.554l-13.967,15.622a1.318,1.318,0,0,1-.858.384Zm-1.415-13.7a4.647,4.647,0,0,1,1.191-3.16,4.66,4.66,0,0,1,3.547-1.444,4.53,4.53,0,0,1,4.758,4.6,4.636,4.636,0,0,1-1.2,3.161,4.692,4.692,0,0,1-3.562,1.443A4.521,4.521,0,0,1-680-705.227Zm2.211-.029a2.4,2.4,0,0,0,2.554,2.465,2.4,2.4,0,0,0,1.851-.751,2.5,2.5,0,0,0,.613-1.683,2.374,2.374,0,0,0-2.491-2.465A2.349,2.349,0,0,0-677.789-705.256Z" transform="translate(680 709.831)" fill="#00aeef"/>
</svg>
