<svg xmlns="http://www.w3.org/2000/svg" width="28.457" height="20" viewBox="0 0 28.457 20">
  <path id="Caminho_5126" data-name="Caminho 5126" d="M1,104.265V92.157a1.218,1.218,0,0,1,1.218-1.218h12.1a1.218,1.218,0,0,1,1.218,1.218v12.107a.406.406,0,0,1-.406.406H1.4A.406.406,0,0,1,1,104.265Zm9.772,4.148a2.527,2.527,0,1,1-2.527-2.527A2.527,2.527,0,0,1,10.771,108.412Zm-1.263,0a1.263,1.263,0,1,0-1.263,1.263A1.263,1.263,0,0,0,9.507,108.412Zm-3.439-2.527H.406a.406.406,0,0,0-.406.406v1.232a.406.406,0,0,0,.406.406H4.944A3.333,3.333,0,0,1,6.068,105.886Zm17.922,2.527a2.527,2.527,0,1,1-2.527-2.527A2.527,2.527,0,0,1,23.99,108.412Zm-1.263,0a1.263,1.263,0,1,0-1.263,1.263A1.263,1.263,0,0,0,22.727,108.412Zm5.73-2.121v1.232a.406.406,0,0,1-.406.406H24.763a3.334,3.334,0,0,0-6.6,0h-6.62a3.333,3.333,0,0,0-1.124-2.044H16.7V94.271a.812.812,0,0,1,.812-.812h3.834a3.248,3.248,0,0,1,2.692,1.431l2.471,3.66a3.249,3.249,0,0,1,.556,1.818v5.518h.988A.406.406,0,0,1,28.457,106.292Zm-4.119-7.648-1.976-2.808a.406.406,0,0,0-.332-.172H18.947a.406.406,0,0,0-.406.406v2.808a.406.406,0,0,0,.406.406h5.059A.406.406,0,0,0,24.338,98.644Z" transform="translate(0 -90.939)" fill="#036da6"/>
</svg>

