<svg xmlns="http://www.w3.org/2000/svg" width="13.682" height="20" viewBox="0 0 13.682 20">
  <path id="ic_lock_24px" d="M15.972,7.667h-.855v-1.9A4.54,4.54,0,0,0,10.841,1,4.54,4.54,0,0,0,6.565,5.762v1.9H5.71A1.821,1.821,0,0,0,4,9.571V19.1A1.821,1.821,0,0,0,5.71,21H15.972a1.821,1.821,0,0,0,1.71-1.9V9.571A1.821,1.821,0,0,0,15.972,7.667Zm-5.131,8.571a1.821,1.821,0,0,1-1.71-1.9,1.821,1.821,0,0,1,1.71-1.9,1.821,1.821,0,0,1,1.71,1.9A1.821,1.821,0,0,1,10.841,16.238Zm2.651-8.571H8.19v-1.9A2.816,2.816,0,0,1,10.841,2.81a2.816,2.816,0,0,1,2.651,2.952Z" transform="translate(-4 -1)" fill="#036da6"/>
</svg> 
 