<svg xmlns="http://www.w3.org/2000/svg" width="25" height="20" viewBox="0 0 25 20">
  <path id="União_87" data-name="União 87" d="M2.083,20a2.006,2.006,0,0,1-1.471-.612A2.007,2.007,0,0,1,0,17.916V2.083A2.006,2.006,0,0,1,.612.612,2.006,2.006,0,0,1,2.083,0H22.917a2.006,2.006,0,0,1,1.471.612A2.007,2.007,0,0,1,25,2.083V17.916A2.09,2.09,0,0,1,22.917,20Zm-.416-2.084a.421.421,0,0,0,.416.417H22.917a.422.422,0,0,0,.417-.416V10H1.667ZM1.79,1.79a.4.4,0,0,0-.123.293V5H23.333V2.083a.421.421,0,0,0-.416-.416H2.083A.4.4,0,0,0,1.79,1.79ZM8.334,16.666V15h5v1.667Zm-5,0V15H6.667v1.667Z" fill="#036da6"/>
</svg>
