<svg class="dn" height="0" version="1.1" width="0"
  xmlns="http://www.w3.org/2000/svg" viewBox="0 0 33.008 30.109" >
  <defs>
    <g id="hpa-cart">        
      <path id="Caminho_2" data-name="Caminho 2" d="M320.011,374.407a4.058,4.058,0,1,0,4.058,4.058A4.063,4.063,0,0,0,320.011,374.407Zm0,5.8a1.739,1.739,0,1,1,1.739-1.739A1.741,1.741,0,0,1,320.011,380.2Z" transform="translate(-295.584 -352.415)" fill="#018247"/>
      <path id="Caminho_3" data-name="Caminho 3" d="M32.762,39.831a1.159,1.159,0,0,0-.913-.445H26.283a1.16,1.16,0,1,0,0,2.319h4.084l-2.323,9.354H9.285L7.272,41.7H28.043V39.386H6.773L5.656,34.195a1.16,1.16,0,0,0-1.134-.916H1.16a1.16,1.16,0,0,0,0,2.319H3.586L7.215,52.462a1.16,1.16,0,0,0,1.134.916h20.6a1.16,1.16,0,0,0,1.125-.88l2.9-11.672A1.159,1.159,0,0,0,32.762,39.831Z" transform="translate(0 -33.279)" fill="#018247"/>
    </g>
    <g id="hpa-search">
        <path id="Path_11844" data-name="Path 11844" d="M11.1,3.439a7.66,7.66,0,1,0,7.66,7.66A7.66,7.66,0,0,0,11.1,3.439ZM1.25,11.1A9.848,9.848,0,1,1,11.1,20.947,9.848,9.848,0,0,1,1.25,11.1Z" transform="translate(-1.25 -1.25)" fill="#036da6" fill-rule="evenodd"/>
        <path id="Path_11845" data-name="Path 11845" d="M10.2,10.2a1.428,1.428,0,0,1,2.019,0l6.21,6.21a1.427,1.427,0,0,1-2.019,2.019l-6.21-6.21A1.428,1.428,0,0,1,10.2,10.2Z" transform="translate(5.197 5.197)" fill="#036da6" fill-rule="evenodd"/>
    </g>
    <g id="hpa-hamburguer-menu">
      <g id="icone_menu" data-name="icone menu" transform="translate(-13 -24)">
        <rect id="Rectangle_4147" data-name="Rectangle 4147" width="20" height="2" transform="translate(13 24)" fill="#036da6"/>
        <rect id="Rectangle_4148" data-name="Rectangle 4148" width="20" height="2" transform="translate(13 29)" fill="#036da6"/>
        <rect id="Rectangle_4149" data-name="Rectangle 4149" width="20" height="2" transform="translate(13 34)" fill="#036da6"/>
      </g>
    </g>
    <g id="icon-menu">
        <svg xmlns="http://www.w3.org/2000/svg" width="21" height="21" viewBox="0 0 21 21">
          <g id="Grupo_191" data-name="Grupo 191" transform="translate(-1246 -165)">
            <g id="Retângulo_563" data-name="Retângulo 563" transform="translate(1246 165)" fill="none" stroke="#fff" stroke-width="2">
              <rect width="9" height="9" stroke="none"/>
              <rect x="1" y="1" width="7" height="7" fill="none"/>
            </g>
            <g id="Retângulo_566" data-name="Retângulo 566" transform="translate(1246 177)" fill="none" stroke="#fff" stroke-width="2">
              <rect width="9" height="9" stroke="none"/>
              <rect x="1" y="1" width="7" height="7" fill="none"/>
            </g>
            <g id="Retângulo_564" data-name="Retângulo 564" transform="translate(1258 165)" fill="none" stroke="#fff" stroke-width="2">
              <rect width="9" height="9" stroke="none"/>
              <rect x="1" y="1" width="7" height="7" fill="none"/>
            </g>
            <g id="Retângulo_565" data-name="Retângulo 565" transform="translate(1258 177)" fill="none" stroke="#fff" stroke-width="2">
              <rect width="9" height="9" stroke="none"/>
              <rect x="1" y="1" width="7" height="7" fill="none"/>
            </g>
          </g>
      </svg>
    </g>
     <g id="ico-eletrodomestico">
      <svg xmlns="http://www.w3.org/2000/svg" width="20.97" height="34.706" viewBox="0 0 20.97 34.706">
        <g id="Grupo_232" data-name="Grupo 232" transform="translate(-27.583 -0.115)">
          <g id="Grupo_230" data-name="Grupo 230">
            <path id="Caminho_155" data-name="Caminho 155" d="M48.553,11.753V1.947A1.892,1.892,0,0,0,46.61.115H29.526a1.892,1.892,0,0,0-1.943,1.832v9.806a1.781,1.781,0,0,0,.643,1.357,1.781,1.781,0,0,0-.643,1.357v16.59a1.892,1.892,0,0,0,1.943,1.832h.264v1.457a.49.49,0,0,0,.5.475h3.6a.49.49,0,0,0,.5-.475V32.889h7.342v1.457a.49.49,0,0,0,.5.475h3.6a.49.49,0,0,0,.5-.475V32.889h.264a1.892,1.892,0,0,0,1.943-1.832V14.467a1.781,1.781,0,0,0-.643-1.357,1.781,1.781,0,0,0,.643-1.357ZM33.389,33.871H30.8v-.982h2.591Zm11.949,0H42.747v-.982h2.591Zm2.207-19.4v16.59a.911.911,0,0,1-.936.882H29.526a.911.911,0,0,1-.936-.882V14.467a.911.911,0,0,1,.936-.882H46.61a.911.911,0,0,1,.936.882ZM29.526,12.635a.911.911,0,0,1-.936-.882V1.947a.911.911,0,0,1,.936-.882H46.61a.911.911,0,0,1,.936.882v9.807a.911.911,0,0,1-.936.882Z" fill="#fff"/>
            <path id="Caminho_156" data-name="Caminho 156" d="M82.783,12.682H80.912a.5.5,0,0,0-.5.5v6.046a.5.5,0,0,0,.5.5h1.871a.5.5,0,0,0,.5-.5V13.186A.5.5,0,0,0,82.783,12.682Zm-.5,6.046h-.864V13.69h.864Z" transform="translate(-37.616 -8.949)" fill="#fff"/>
          </g>
          <path id="Caminho_157" data-name="Caminho 157" d="M80.912,63.312h1.871a.5.5,0,0,0,.5-.5V56.762a.5.5,0,0,0-.5-.5H80.912a.5.5,0,0,0-.5.5v6.046a.5.5,0,0,0,.5.5Zm.5-6.046h.864V62.3h-.864Z" transform="translate(-37.616 -41.127)" fill="#fff"/>
        </g>
      </svg>   
     </g>
      <g id="ico_eletro">
        <svg xmlns="http://www.w3.org/2000/svg" width="25.175" height="30.826" viewBox="0 0 25.175 30.826">
          <g id="blender" transform="translate(-43.998)">
            <g id="Grupo_79" data-name="Grupo 79" transform="translate(43.998 0)">
              <g id="Grupo_78" data-name="Grupo 78" transform="translate(0 0)">
                <path id="Caminho_158" data-name="Caminho 158" d="M183.233,368.072a2.569,2.569,0,1,0,1.817,3.146A2.569,2.569,0,0,0,183.233,368.072Zm-2.154,2.083a1.527,1.527,0,0,1,2.481-.767l-2.5,1.445A1.534,1.534,0,0,1,181.079,370.155Zm2.98.8a1.536,1.536,0,0,1-2.485.771l2.507-1.447A1.535,1.535,0,0,1,184.059,370.953Z" transform="translate(-171.266 -344.351)" fill="#fff"/>
                <path id="Caminho_159" data-name="Caminho 159" d="M66.6,4.11h-2.4l.34-3.545c0-.008,0-.016,0-.024s0-.018,0-.027a.466.466,0,0,0-.018-.089.511.511,0,0,0-.018-.089.524.524,0,0,0-.066-.113.525.525,0,0,0-.032-.054s-.007,0-.01-.007a.507.507,0,0,0-.127-.092L64.24.043a.513.513,0,0,0-.2-.043H44.512a.514.514,0,0,0-.458.748L46.64,5.81,48.3,19.443a3.592,3.592,0,0,0,1.376,2.411A3.581,3.581,0,0,0,47.54,24.3l-1.471,5.885a.514.514,0,0,0,.5.638H64.035a.514.514,0,0,0,.5-.638L63.062,24.3a3.585,3.585,0,0,0-1.853-2.323,3.579,3.579,0,0,0,1.548-2.627L63.915,7.193h1.662a.514.514,0,0,1,.514.49l-.9,8.066a1.44,1.44,0,0,0-.01.188,1.531,1.531,0,0,0,3.054.154l.937-9.412A2.572,2.572,0,0,0,66.6,4.11ZM62.066,24.552,63.377,29.8H47.225l1.312-5.247a2.566,2.566,0,0,1,2.492-1.946h8.544A2.566,2.566,0,0,1,62.066,24.552Zm-.331-5.3a2.558,2.558,0,0,1-2.557,2.325h-7.31a2.564,2.564,0,0,1-2.506-2.055h1.83a.514.514,0,0,0,0-1.028H49.217l-.25-2.055h2.224a.514.514,0,0,0,0-1.028H48.842l-.25-2.055h2.6a.514.514,0,0,0,0-1.028H48.468l-.25-2.055h2.973a.514.514,0,0,0,0-1.028h-3.1l-.25-2.055h3.348a.514.514,0,0,0,0-1.028H47.718l-.069-.57a.513.513,0,0,0-.051-.172l-2.246-4.4H63.47Zm5.479-3.265a.5.5,0,0,1-1-.051l.906-8.174a.514.514,0,0,0,0-.057,1.541,1.541,0,0,0-1.541-1.541H64.013l.1-1.028H66.6a1.537,1.537,0,0,1,1.544,1.49Z" transform="translate(-43.998 0)" fill="#fff"/>
              </g>
            </g>
          </g>
        </svg>
      </g>
      <g id="ico_moveis">
        <svg xmlns="http://www.w3.org/2000/svg" width="30.542" height="34" viewBox="0 0 30.542 34">
          <g id="armchair" transform="translate(-18)">
            <g id="Grupo_80" data-name="Grupo 80" transform="translate(18)">
              <path id="Caminho_160" data-name="Caminho 160" d="M45.431,11.41V4.994C45.431,1.306,42.857,0,40.436,0H26.068c-2.42,0-4.994,1.306-4.994,4.994V11.41A4.082,4.082,0,0,0,18,15.367v10.3A4.017,4.017,0,0,0,22.034,30v2.612A1.377,1.377,0,0,0,23.417,34h1.421a1.377,1.377,0,0,0,1.383-1.383V30h14.1v2.612A1.377,1.377,0,0,0,41.7,34h1.421a1.377,1.377,0,0,0,1.383-1.383V30a4.026,4.026,0,0,0,4.034-4.341V15.329A4.2,4.2,0,0,0,45.431,11.41ZM22.457,4.994a3.3,3.3,0,0,1,3.611-3.65H40.436a3.27,3.27,0,0,1,3.611,3.611v6.3a4.1,4.1,0,0,0-3.727,4.072v.96H26.183v-.96a4.1,4.1,0,0,0-3.727-4.072V4.994ZM40.283,17.672v4.764h-14.1V17.672ZM24.838,32.617H23.417V30h1.421v2.612Zm18.249,0H41.666V30h1.421Zm4.072-6.954h-.038a2.685,2.685,0,0,1-3,3H22.38a2.685,2.685,0,0,1-3-3V15.329a2.728,2.728,0,1,1,5.455,0v7.8a.689.689,0,0,0,.692.692H41.012a.689.689,0,0,0,.692-.692v-7.8a2.728,2.728,0,1,1,5.455,0Z" transform="translate(-18 0)" fill="#fff"/>
            </g>
          </g>
        </svg>
      </g>
      <g id="ico_casa">
        <svg xmlns="http://www.w3.org/2000/svg" width="32.161" height="32.161" viewBox="0 0 32.161 32.161">
          <g id="hammer" transform="translate(0 0.001)">
            <path id="Caminho_167" data-name="Caminho 167" d="M31.344,26.207,16.981,8.5a.939.939,0,0,0-.08-1.07L15.729,5.988c2.145-1.6,3.615-2.021,6.837-2.136A.943.943,0,0,0,23.009,2.1C18.1-.786,13.5-.7,9.7,2.357l-4,3.222a.942.942,0,0,0-.14,1.328.929.929,0,0,1-.143,1.316A.947.947,0,0,1,4.09,8.082.942.942,0,0,0,2.767,7.94L1.053,9.318a2.815,2.815,0,0,0-.423,3.97L3,16.212a2.837,2.837,0,0,0,3.975.422l1.714-1.378a.942.942,0,0,0,.142-1.328.932.932,0,0,1,.141-1.316.949.949,0,0,1,1.33.14.942.942,0,0,0,1.043.3L25.665,30.8a3.652,3.652,0,1,0,5.679-4.594Zm-18.5-14.3,2.705-2.177L17.6,12.262,14.89,14.443ZM6.753,13.044A2.8,2.8,0,0,0,6.9,14.28l-1.1.887a.949.949,0,0,1-1.33-.14L2.093,12.1a.932.932,0,0,1,.14-1.315L3.341,9.9A2.828,2.828,0,0,0,7.494,6.554l3.391-2.73a8.319,8.319,0,0,1,8.146-1.475A12.082,12.082,0,0,0,13.8,5.1a.942.942,0,0,0-.141,1.327l1.183,1.459-3.793,3.053a2.832,2.832,0,0,0-4.3,2.105ZM29.619,29.882a1.767,1.767,0,0,1-2.488-.265L16.073,15.91l2.718-2.184L29.88,27.394a1.767,1.767,0,0,1-.261,2.489Z" transform="translate(0 0)" fill="#fff"/>
          </g>
        </svg>
      </g>
      <g id="ico_maquina">
        <svg xmlns="http://www.w3.org/2000/svg" width="44.748" height="30.728" viewBox="0 0 44.748 30.728">
          <g id="drill" transform="translate(0 -73.051)">
            <g id="Grupo_82" data-name="Grupo 82" transform="translate(0 73.051)">
              <g id="Grupo_81" data-name="Grupo 81">
                <path id="Caminho_163" data-name="Caminho 163" d="M40.91,73.473l-17.158-.422a1.1,1.1,0,0,0-.355.058l-6.612,2.5a.977.977,0,0,0-.5.441H10.767a.994.994,0,0,0-.413.086l-4.117,2A.961.961,0,0,0,5.7,79v.988H.96a.96.96,0,0,0,0,1.919H5.691v.221a.971.971,0,0,0,.537.864l3.743,1.814.374.173a1.027,1.027,0,0,0,.413.086h5.393v.048a.976.976,0,0,0,.691.921l6.612,1.977a1.371,1.371,0,0,0,.278.029h1.631v2.188a1.977,1.977,0,0,0,2,1.938h2.13v4.7H28.444a3.455,3.455,0,1,0,0,6.909h9.481a3.45,3.45,0,0,0,3.464-3.436,3.488,3.488,0,0,0-2.975-3.407V88.05h2.418a3.9,3.9,0,0,0,3.915-3.887V77.427A3.918,3.918,0,0,0,40.91,73.473ZM9.433,82.417,7.61,81.534V79.605l1.823-.883Zm6.718.739h-4.8V77.974h4.8Zm6.622,2.677-4.7-1.42V77.168l4.7-1.775Zm4.587,4.424c-.019,0-.077,0-.077-.019V88.05H29.49v2.207Zm12.1,10.1a1.519,1.519,0,0,1-.451,1.075,1.492,1.492,0,0,1-1.084.441H28.444a1.522,1.522,0,0,1-1.535-1.507v-.01a1.519,1.519,0,0,1,.451-1.075l.01-.019a1.528,1.528,0,0,1,1.075-.461h2a.942.942,0,0,0,.969-.912V88.05H36.5v9.817a.911.911,0,0,0,.892.931h.537A1.55,1.55,0,0,1,39.461,100.353Zm3.368-16.228a1.989,1.989,0,0,1-1.958,2.006H24.692V74.989l16.17.4a2.041,2.041,0,0,1,1.967,2.034Z" transform="translate(0 -73.051)" fill="#fff"/>
              </g>
            </g>
            <g id="Grupo_84" data-name="Grupo 84" transform="translate(38.415 77.465)">
              <g id="Grupo_83" data-name="Grupo 83">
                <path id="Caminho_164" data-name="Caminho 164" d="M401.26,119.051a.962.962,0,0,0-.96.96v4.7a.96.96,0,1,0,1.919,0v-4.7A.962.962,0,0,0,401.26,119.051Z" transform="translate(-400.3 -119.051)" fill="#fff"/>
              </g>
            </g>
            <g id="Grupo_86" data-name="Grupo 86" transform="translate(35.344 77.465)">
              <g id="Grupo_85" data-name="Grupo 85">
                <path id="Caminho_165" data-name="Caminho 165" d="M369.26,119.051a.962.962,0,0,0-.96.96v4.7a.96.96,0,1,0,1.919,0v-4.7A.962.962,0,0,0,369.26,119.051Z" transform="translate(-368.3 -119.051)" fill="#fff"/>
              </g>
            </g>
            <g id="Grupo_88" data-name="Grupo 88" transform="translate(32.369 77.465)">
              <g id="Grupo_87" data-name="Grupo 87">
                <path id="Caminho_166" data-name="Caminho 166" d="M338.26,119.051a.962.962,0,0,0-.96.96v4.7a.96.96,0,1,0,1.919,0v-4.7A.962.962,0,0,0,338.26,119.051Z" transform="translate(-337.3 -119.051)" fill="#fff"/>
              </g>
            </g>
          </g>
        </svg>
      </g>
      <g id="ico_campo">
        <svg xmlns="http://www.w3.org/2000/svg" width="35" height="35" viewBox="0 0 18.07 36.139">
          <g id="Grupo_246" data-name="Grupo 246" transform="translate(-51 -51)">
            <g id="Grupo_246-2" data-name="Grupo 246" transform="translate(51 51)">
              <path id="Caminho_219" data-name="Caminho 219" d="M62.5,72.355H60.856V67.427a.822.822,0,0,1,.637-.8l4.188-.962a2.465,2.465,0,0,0,1.745-2.358v-2.45c0-1.57-.654-6.517-.66-6.568a2,2,0,0,0-.76-1.4,1.99,1.99,0,0,0-.223.911v5.409a2.464,2.464,0,1,1-4.928,0V54.479a2.136,2.136,0,0,0-.821-1.691,2.136,2.136,0,0,0-.821,1.691v4.734a2.464,2.464,0,1,1-4.928,0V53.8a1.99,1.99,0,0,0-.223-.911,1.97,1.97,0,0,0-.756,1.369c-.01.076-.664,5.024-.664,6.594v2.45a2.476,2.476,0,0,0,1.787,2.37l4.146.95a.822.822,0,0,1,.637.8v4.928H57.571V68.081l-3.551-.815A4.136,4.136,0,0,1,51,63.306v-2.45c0-1.677.647-6.576.675-6.784a3.591,3.591,0,0,1,1.983-2.856l.26-.131a.821.821,0,0,1,.948.154A3.6,3.6,0,0,1,55.928,53.8v5.409a.821.821,0,0,0,1.643,0V54.479a3.774,3.774,0,0,1,2.1-3.393.825.825,0,0,1,.734,0,3.774,3.774,0,0,1,2.1,3.393v4.734a.821.821,0,0,0,1.643,0V53.8A3.6,3.6,0,0,1,65.2,51.241a.823.823,0,0,1,.948-.154l.26.131A3.6,3.6,0,0,1,68.4,54.1c.025.182.672,5.08.672,6.757v2.45a4.126,4.126,0,0,1-2.978,3.949l-3.593.825Z" transform="translate(-51 -51)" fill="#fff"/>
            </g>
            <g id="Grupo_247" data-name="Grupo 247" transform="translate(56.749 70.712)">
              <path id="Caminho_220" data-name="Caminho 220" d="M61.285,91.427A3.289,3.289,0,0,1,58,88.142V75.821A.822.822,0,0,1,58.821,75h4.928a.822.822,0,0,1,.821.821v12.32A3.289,3.289,0,0,1,61.285,91.427ZM59.643,76.643v11.5a1.643,1.643,0,0,0,3.285,0v-11.5Z" transform="translate(-58 -75)" fill="#fff"/>
            </g>
            <g id="Grupo_248" data-name="Grupo 248" transform="translate(61.053 63.566)">
              <rect id="Retângulo_1696" data-name="Retângulo 1696" width="2" height="4" transform="translate(-0.053 0.434)" fill="#fff"/>
            </g>
          </g>
        </svg>
      </g>
      <g id="mobilidade-e-acessorios">
        <svg xmlns="http://www.w3.org/2000/svg" width="20.151" height="25.516" viewBox="0 0 20.151 25.516">
        <path id="cadeira-de-rodas" d="M20.652,12.717l-4.741.231,2.66-3.007a2.1,2.1,0,0,0,.231-1.5,1.589,1.589,0,0,0-.578-.925l-6.245-3.7a1.4,1.4,0,0,0-1.619.116L7.238,6.819a1.336,1.336,0,0,0-.116,1.966A1.432,1.432,0,0,0,9.088,8.9L11.4,6.819l2.2,1.272L8.741,13.064c-.116.116-.116.231-.231.231a7.065,7.065,0,0,0-1.619.809l1.735,1.735a4.846,4.846,0,0,1,1.735-.463,4.1,4.1,0,0,1,4.047,4.047,2.787,2.787,0,0,1-.463,1.735l1.735,1.735a6.119,6.119,0,0,0,1.041-3.469,6.309,6.309,0,0,0-1.272-3.816l3.816-.347-.231,5.551a1.336,1.336,0,0,0,1.272,1.5h.116a1.478,1.478,0,0,0,1.388-1.272l.231-6.823a1.614,1.614,0,0,0-.347-1.041,1.413,1.413,0,0,0-1.041-.463M20.19,6.126a2.313,2.313,0,1,0-2.313-2.313A2.313,2.313,0,0,0,20.19,6.126m-6.36,18.618a6.119,6.119,0,0,1-3.469,1.041A6.417,6.417,0,0,1,4,19.424a6.119,6.119,0,0,1,1.041-3.469L6.775,17.69a4.846,4.846,0,0,0-.463,1.735,4.1,4.1,0,0,0,4.047,4.047,2.787,2.787,0,0,0,1.735-.463Z" transform="matrix(0.998, 0.07, -0.07, 0.998, -2.192, -1.775)" fill="#fff"/>
        </svg>
      </g>
      <g id="conforto-do-paciente">
        <svg xmlns="http://www.w3.org/2000/svg" width="30.994" height="21.696" viewBox="0 0 30.994 21.696">
          <path id="cama2" d="M8.523,44.4a3.874,3.874,0,1,0-3.874-3.874A3.879,3.879,0,0,0,8.523,44.4Zm17.822-7.749H14.722a.777.777,0,0,0-.775.775v8.523H3.1V32.775A.775.775,0,0,0,2.325,32H.775A.775.775,0,0,0,0,32.775V52.921a.776.776,0,0,0,.775.775h1.55a.776.776,0,0,0,.775-.775V50.6h24.8v2.325a.775.775,0,0,0,.775.775h1.55a.775.775,0,0,0,.775-.775V41.3A4.623,4.623,0,0,0,26.345,36.649Z" transform="translate(0 -32)" fill="#fff"/>
        </svg>
      </g>
      <g id="almofadas-e-colchoes">
        <svg xmlns="http://www.w3.org/2000/svg" width="32.516" height="20.327" viewBox="0 0 32.516 20.327">
          <path id="colchao" d="M16.364,0H3.97C1.782,0,0,1.234,0,4.386V28.122c0,3.609,1.782,4.395,3.97,4.395H16.365c2.184,0,3.962-.639,3.962-4.395V4.386C20.327,1.139,18.548,0,16.364,0Zm-.478,7.149a1.436,1.436,0,0,1-1.545,1.294H5.989A1.436,1.436,0,0,1,4.444,7.149V3.108A1.437,1.437,0,0,1,5.989,1.814h8.353a1.436,1.436,0,0,1,1.545,1.294V7.149Z" transform="translate(0 20.327) rotate(-90)" fill="#fff"/>
        </svg>
      </g> 
      <g id="travesseiros-e-capas">
        <svg xmlns="http://www.w3.org/2000/svg" width="35" height="18" viewBox="0 0 35 18">
          <rect id="Rectangle_4196" data-name="Rectangle 4196" width="35" height="18" rx="5" fill="#fff"/>
        </svg>
      </g> 
      <g id="produtos-ortopedicos">
        <svg xmlns="http://www.w3.org/2000/svg" width="23.112" height="28" viewBox="0 0 23.112 28">
          <g id="lesao" transform="translate(-4.888 -2)">
            <path id="Path_11903" data-name="Path 11903" d="M28,28.8l-1.6-6.4a4.657,4.657,0,0,0-2.2-3.1l-3.7-2.1a.909.909,0,0,0-1.1.1,5.7,5.7,0,0,1-6.8,0h0a.1.1,0,0,1-.1-.1c-.1,0-.1-.1-.2-.1h-.4a.367.367,0,0,0-.3.1h-.1C9,18.8,5.8,21,5,24.3a4.84,4.84,0,0,0,.9,4A4.8,4.8,0,0,0,9.6,30H27a.909.909,0,0,0,.8-.4A1.2,1.2,0,0,0,28,28.8ZM7.5,27A2.75,2.75,0,0,1,7,24.7c.4-2,2.2-3.5,4-4.8V23H10a1,1,0,0,0,0,2h6.5a1.5,1.5,0,0,1,0,3H9.6A2.814,2.814,0,0,1,7.5,27Z" fill="#fff"/>
            <path id="Path_11904" data-name="Path 11904" d="M16,17a4.951,4.951,0,0,0,5-5V10h1a.945.945,0,0,0,1-1V6.5A4.481,4.481,0,0,0,18.5,2a4.42,4.42,0,0,0-3.9,2.3A2.016,2.016,0,0,0,13.5,4,2.476,2.476,0,0,0,11,6.5V12A4.951,4.951,0,0,0,16,17Z" fill="#fff"/>
          </g>
        </svg>
      </g> 
      <g id="meias-de-compressao">
        <svg xmlns="http://www.w3.org/2000/svg" width="21.808" height="21.807" viewBox="0 0 21.808 21.807">
          <path id="meias" d="M44.2,1.363A2.74,2.74,0,0,1,44.536.069.807.807,0,0,0,44.2,0H38.782a1.4,1.4,0,0,0-1.4,1.363V2.726H44.2ZM41.107,13.208l3.125-2.343V4.089H37.417v7.458L33.727,14.3a4.213,4.213,0,0,0-1.245,5.409,4.117,4.117,0,0,0,3.576,2.06,4.06,4.06,0,0,0,2.449-.819l.931-.7A5.574,5.574,0,0,1,41.107,13.208Zm4.451-1.661L41.89,14.3a4.213,4.213,0,0,0-1.245,5.409,4.14,4.14,0,0,0,3.593,2.1,4.059,4.059,0,0,0,2.449-.82l4.907-3.679a5.471,5.471,0,0,0,2.181-4.4V4.089H45.6ZM52.411,0H46.959A1.366,1.366,0,0,0,45.6,1.363V2.726h8.178V1.363A1.366,1.366,0,0,0,52.411,0Z" transform="translate(-31.965)" fill="#fff"/>
        </svg>
      </g>
      <g id="cuidado-pes-e-corpo">
        <svg xmlns="http://www.w3.org/2000/svg" width="15.261" height="25.527" viewBox="0 0 15.261 25.527">
          <path id="pe" d="M18.749,2A2.552,2.552,0,1,1,16.2,4.552,2.552,2.552,0,0,1,18.749,2M13.7,3.276A1.914,1.914,0,1,1,11.782,5.19,1.914,1.914,0,0,1,13.7,3.276M9.932,5.19A1.276,1.276,0,1,1,8.656,6.466,1.276,1.276,0,0,1,9.932,5.19M7.316,7.1A1.276,1.276,0,1,1,6.04,8.38,1.276,1.276,0,0,1,7.316,7.1m9.557,7.656a3.19,3.19,0,0,0,3.152-3.522,3.318,3.318,0,0,0-3.33-2.858H13.53a7.656,7.656,0,0,0-7.388,5.614,2.552,2.552,0,0,0,.14,1.786,8.677,8.677,0,0,1,.868,3.777,8.792,8.792,0,0,1-.88,3.56,2.45,2.45,0,0,0,.1,2.246,4.619,4.619,0,0,0,4.964,2.042A4.466,4.466,0,0,0,14.1,20.668a3.6,3.6,0,0,1-.574-2.08S13.237,14.76,16.873,14.76Z" transform="translate(-6.04 -2)" fill="#fff"/>
        </svg>
      </g>
      <g id="esporte-e-fisioterapia">
      <svg xmlns="http://www.w3.org/2000/svg" width="21.631" height="26.622" viewBox="0 0 21.631 26.622">
        <path id="run" d="M14.143,4.992a2.5,2.5,0,1,0-2.5-2.5A2.5,2.5,0,0,0,14.143,4.992ZM5.912,16.508,5.142,18.3H1.664a1.664,1.664,0,1,0,0,3.328H5.691a2.491,2.491,0,0,0,2.294-1.513l.457-1.067-.555-.328a4.952,4.952,0,0,1-1.975-2.216Zm14.056-4.861H17.678L16.323,8.878A4.989,4.989,0,0,0,13.11,6.229l-3.7-1.1a4.971,4.971,0,0,0-4.2.891L3.148,7.6a1.664,1.664,0,1,0,2.025,2.64L7.237,8.662a1.619,1.619,0,0,1,1.314-.319l.764.227L7.367,13.114A3.337,3.337,0,0,0,8.735,17.29L13.153,19.9,11.725,24.46a1.664,1.664,0,1,0,3.176.994L16.546,20.2a2.506,2.506,0,0,0-1.125-2.828l-3.184-1.879,1.628-4.07,1.054,2.154a2.511,2.511,0,0,0,2.242,1.4h2.807a1.664,1.664,0,1,0,0-3.327Z" fill="#fff"/>
      </svg>
      </g>
      <g id="aparelhos">
        <svg xmlns="http://www.w3.org/2000/svg" width="21.965" height="22.001" viewBox="0 0 21.965 22.001">
          <g id="Glyph" transform="translate(-1.02 -1)">
            <path id="Path_11899" data-name="Path 11899" d="M21.42,3.69h0a6.49,6.49,0,0,0-5-2.67h0A7,7,0,0,0,12,2.84,7,7,0,0,0,7.57,1h0a6.49,6.49,0,0,0-5,2.69c-2.28,2.84-2,7.77.55,11.73a25.73,25.73,0,0,0,7.24,7.1,3,3,0,0,0,3.26,0,25.59,25.59,0,0,0,7.24-7.1C23.47,11.46,23.7,6.53,21.42,3.69ZM18,13H16.29a1,1,0,0,1-.86-.5L15,11.78,12.87,15.5A1,1,0,0,1,12,16h-.12a1,1,0,0,1-.84-.72L9.79,10.9l-.68,1.51A1,1,0,0,1,8.2,13H6a1,1,0,0,1,0-2H7.55L9.09,7.59A1,1,0,0,1,11,7.73l1.35,4.72,1.82-3.17a1,1,0,0,1,.87-.5h0a1,1,0,0,1,.86.5l1,1.72H18a1,1,0,0,1,0,2Z" fill="#fff"/>
          </g>
        </svg>
      </g>
  </defs>
</svg> 
