<svg xmlns="http://www.w3.org/2000/svg" width="65.692" height="41.056" viewBox="0 0 65.692 41.056">
  <g id="Grupo_839" data-name="Grupo 839" transform="translate(-647.55 -5482.94)">
    <rect id="Ret창ngulo_2589" data-name="Ret창ngulo 2589" width="65.692" height="41.056" rx="4.18" transform="translate(647.55 5482.94)" fill="#0073a5"/>
    <path id="Caminho_4567" data-name="Caminho 4567" d="M1076.659,722.458V721.8l-.314.655h-2.713l-.34-.707v.707h-5.085l-.6-1.419h-1.021l-.634,1.419h-2.619v-4.295l1.932-4.373h3.656l.524,1.241V713.8h4.525l1,2.095.974-2.095h14.282a2.435,2.435,0,0,1,1.241.335V713.8h3.6v.471a2.933,2.933,0,0,1,1.6-.471h6.353l.555,1.257V713.8h4.106l.739,1.257V713.8h3.891v8.673h-4l-.937-1.514v1.5h-4.965l-.7-1.571h-.974l-.655,1.571h-3.006a3.891,3.891,0,0,1-1.964-.618v.618h-5.986v-2.022c0-.293-.225-.272-.225-.272h-.22v2.294Z" transform="translate(-408.725 4780.055)" fill="#fff"/>
    <path id="Caminho_4568" data-name="Caminho 4568" d="M1083.066,733.92h7.856l1.137,1.283,1.163-1.283h6.039a2.782,2.782,0,0,1,1.105.3v-.3h5.384a2.746,2.746,0,0,1,1.257.34v-.34h6.919v.314a2.351,2.351,0,0,1,1.157-.314h4.509v.314a2.756,2.756,0,0,1,1.168-.314h3.541v8.17a1.954,1.954,0,0,1-1.43.524H1118.2v-.272a2.393,2.393,0,0,1-1.121.262h-12.4v-2.095c0-.21-.089-.246-.278-.246h-.173v2.357h-3.876v-2.341a2.618,2.618,0,0,1-1.147.23h-1.393V742.6h-4.777l-1.084-1.325L1090.8,742.6h-7.746Z" transform="translate(-418.117 4770.467)" fill="#fff"/>
    <path id="Caminho_4569" data-name="Caminho 4569" d="M932.09,688.52h4.939v1.325H933.6V691h3.326v1.168H933.6v1.21h3.425v1.294H932.09Z" transform="translate(-242.358 4817.177)" fill="#0073a5"/>
    <path id="Caminho_4570" data-name="Caminho 4570" d="M1155.045,738.816c1.854.094,2.011,1.047,2.011,2.011a1.8,1.8,0,0,1-1.938,1.77h-3.169v-1.32h2.472c.419,0,1.047,0,1.047-.592,0-.283-.11-.461-.555-.524-.2-.026-.932-.068-1.047-.073-1.676-.042-2.069-.88-2.069-1.891a1.7,1.7,0,0,1,1.8-1.781h3.169v1.351h-2.32c-.524,0-1.1-.063-1.1.524,0,.377.283.456.639.487C1154.129,738.768,1154.951,738.816,1155.045,738.816Z" transform="translate(-450.858 4769.28)" fill="#0073a5"/>
    <path id="Caminho_4571" data-name="Caminho 4571" d="M1144.234,738.816c1.854.094,2.011,1.047,2.011,2.011a1.8,1.8,0,0,1-1.938,1.77h-3.169v-1.32h2.477c.419,0,1.047,0,1.047-.592,0-.283-.11-.461-.555-.524-.2-.026-.932-.068-1.047-.073-1.676-.042-2.063-.88-2.063-1.891a1.692,1.692,0,0,1,1.8-1.781h3.169v1.351h-2.346c-.524,0-1.1-.063-1.1.524,0,.377.283.456.639.487C1143.3,738.768,1144.14,738.816,1144.234,738.816Z" transform="translate(-445.714 4769.28)" fill="#0073a5"/>
    <path id="Caminho_4572" data-name="Caminho 4572" d="M1099.665,736.426h-5.3l-1.728,1.906-1.676-1.922H1085v6.149h5.761l1.812-2.032,1.77,2.048h2.9v-2.095h2.032c.781,0,2.21-.026,2.21-2.184a1.7,1.7,0,0,0-1.817-1.87Zm-9.684,4.845H1086.5v-1.215h3.331v-1.168H1086.5v-1.152h3.666l1.472,1.676Zm5.761.712-2.168-2.566,2.168-2.4Zm3.4-2.765h-1.88v-1.451h1.885a.744.744,0,1,1,0,1.477Z" transform="translate(-419.046 4769.281)" fill="#0073a5"/>
    <path id="Caminho_4573" data-name="Caminho 4573" d="M1122.677,739.787a1.676,1.676,0,0,0,1.047-1.7,1.613,1.613,0,0,0-1.812-1.645H1118v6.149h1.508V740.4h1.975c.524,0,.728.524.738,1.047l.042,1.126h1.472l-.057-1.262C1123.662,740.337,1123.389,739.876,1122.677,739.787Zm-1.3-.634h-1.88v-1.372h1.885a.723.723,0,0,1,.833.707C1122.19,738.875,1121.991,739.153,1121.373,739.153Z" transform="translate(-434.763 4769.267)" fill="#0073a5"/>
    <rect id="Ret창ngulo_2590" data-name="Ret창ngulo 2590" width="1.508" height="6.154" transform="translate(683.824 5495.081)" fill="#0073a5"/>
    <path id="Caminho_4574" data-name="Caminho 4574" d="M897.22,668.26h4.928v1.325h-3.42v1.157h3.326v1.163h-3.326v1.215h3.42v1.288H897.22Z" transform="translate(-225.751 4826.826)" fill="#0073a5"/>
    <path id="Caminho_4575" data-name="Caminho 4575" d="M1111.353,719.507a1.676,1.676,0,0,0,1.047-1.7,1.61,1.61,0,0,0-1.812-1.645h-3.928v6.149h1.508V720.14h1.974c.524,0,.728.524.744,1.047l.042,1.126h1.467l-.052-1.262C1112.343,720.057,1112.075,719.59,1111.353,719.507Zm-1.3-.634h-1.88V717.48h1.885a.723.723,0,0,1,.833.707C1110.886,718.6,1110.667,718.873,1110.049,718.873Z" transform="translate(-429.362 4778.926)" fill="#0073a5"/>
    <path id="Caminho_4576" data-name="Caminho 4576" d="M1076.716,716.16l-1.854,4.127-1.849-4.122h-2.367v5.924l-2.619-5.924h-2l-2.692,6.149h1.571l.592-1.372h3.012l.6,1.372h3.038v-4.562l2.016,4.562h1.372l2.063-4.488v4.488h1.508V716.16Zm-10.637,3.451.9-2.147.938,2.147Z" transform="translate(-408.73 4778.926)" fill="#0073a5"/>
    <path id="Caminho_4577" data-name="Caminho 4577" d="M1138.266,716.145V720.4l-2.545-4.258h-2.231v5.761l-2.572-5.761h-2l-2.095,4.761h-.969c-.361-.073-.932-.33-.937-1.414v-.445c0-1.44.78-1.571,1.786-1.571h.932V716.14h-1.969c-.686,0-2.179.524-2.231,3.048-.037,1.7.707,3.106,2.383,3.106h1.99l.592-1.372h3.011l.6,1.372h2.98v-4.5l2.718,4.5h2.058v-6.149Zm-9.275,3.457.9-2.147.948,2.147Z" transform="translate(-437.352 4778.935)" fill="#0073a5"/>
  </g>
</svg>
