<svg xmlns="http://www.w3.org/2000/svg" xmlns:xlink="http://www.w3.org/1999/xlink" width="63.437" height="39.646" viewBox="0 0 63.437 39.646">
  <defs>
    <clipPath id="clip-path">
      <rect id="Retângulo_4115" data-name="Retângulo 4115" width="63.437" height="39.646" rx="4.18" transform="translate(771 4535.35)" fill="#084d95"/>
    </clipPath>
  </defs>
  <g id="Grupo_de_máscara_90" data-name="Grupo de máscara 90" transform="translate(-771 -4535.35)" clip-path="url(#clip-path)">
    <rect id="Retângulo_4114" data-name="Retângulo 4114" width="63.437" height="39.646" rx="4.18" transform="translate(771 4535.35)" fill="#084d95"/>
    <g id="logo_aura" transform="translate(641.1 4382.989)">
      <path id="Caminho_11822" data-name="Caminho 11822" d="M129,151h65.092l.075,20.28c-7.852-3-32.859-10.153-65.142-1.225V151Z" transform="translate(-0.075)" fill="#2c328c" fill-rule="evenodd"/>
      <path id="Caminho_11823" data-name="Caminho 11823" d="M129,257.225h65.092V241c-11.728-3.926-32.609-9.8-65.092-1.475Z" transform="translate(-0.075 -63.214)" fill="#fff200" fill-rule="evenodd"/>
      <path id="Caminho_11824" data-name="Caminho 11824" d="M193.992,222.007c-11.728-3.926-32.609-9.8-65.092-1.475v-6.277c32.309-8.9,57.29-1.75,65.142,1.225Z" transform="translate(0 -44.2)" fill="#ed1c24" fill-rule="evenodd"/>
      <path id="Caminho_11825" data-name="Caminho 11825" d="M211.9,187.151c1.6-4.451,5.3-8.3,11.7-8.252s10.678,3.7,11.828,8.477A112.607,112.607,0,0,0,211.9,187.151Z" transform="translate(-62.244 -20.922)" fill="#fff200" fill-rule="evenodd"/>
      <path id="Caminho_11826" data-name="Caminho 11826" d="M187.1,270.7l4.351-6.5h1.625l4.651,6.5h-1.7l-1.325-1.976h-4.751L188.7,270.7Zm3.276-2.676h3.851l-1.175-1.8c-.35-.55-.625-1-.8-1.35a5.84,5.84,0,0,1-.625,1.25l-1.25,1.9Zm14.979,2.676V270a3.989,3.989,0,0,1-2.6.8,5.728,5.728,0,0,1-1.35-.15,2.482,2.482,0,0,1-.925-.4,1.158,1.158,0,0,1-.425-.6,2.632,2.632,0,0,1-.075-.75v-2.926h1.4v2.6a3.113,3.113,0,0,0,.075.85,1.09,1.09,0,0,0,.55.5,2.561,2.561,0,0,0,1.05.175,3.615,3.615,0,0,0,1.175-.175,1.546,1.546,0,0,0,.775-.5,1.579,1.579,0,0,0,.225-.925v-2.526h1.4v4.7h-1.275Zm4.626,0V266h1.25v.7a2.677,2.677,0,0,1,.9-.65,2.616,2.616,0,0,1,.9-.15,4.08,4.08,0,0,1,1.425.25l-.475.75a2.948,2.948,0,0,0-1.025-.175,2.2,2.2,0,0,0-.825.15,1.02,1.02,0,0,0-.525.425,1.947,1.947,0,0,0-.225.925v2.451h-1.4Zm11.853-.575a6.746,6.746,0,0,1-1.5.525,7.519,7.519,0,0,1-1.525.15,4.59,4.59,0,0,1-2.076-.375,1.125,1.125,0,0,1-.725-.975.9.9,0,0,1,.275-.625,1.634,1.634,0,0,1,.725-.45,3.9,3.9,0,0,1,1-.25c.275-.05.675-.075,1.225-.125a21.991,21.991,0,0,0,2.476-.275v-.2a.669.669,0,0,0-.4-.675,3.63,3.63,0,0,0-1.575-.275,4.077,4.077,0,0,0-1.45.2,1.366,1.366,0,0,0-.7.7l-1.35-.1a1.746,1.746,0,0,1,.6-.8,3.131,3.131,0,0,1,1.225-.475,9.974,9.974,0,0,1,1.876-.175,7.764,7.764,0,0,1,1.7.15,3.536,3.536,0,0,1,.975.35,1.139,1.139,0,0,1,.425.55,2.322,2.322,0,0,1,.075.725v1.075a5.3,5.3,0,0,0,.1,1.4,1.428,1.428,0,0,0,.35.575h-1.45a2.656,2.656,0,0,1-.275-.625Zm-.1-1.8a14.907,14.907,0,0,1-2.276.3c-.575.05-.975.1-1.225.15a1.254,1.254,0,0,0-.55.25.561.561,0,0,0-.2.375c0,.225.15.4.425.525a2.715,2.715,0,0,0,1.225.2,4.9,4.9,0,0,0,1.425-.2,1.941,1.941,0,0,0,.925-.55,1.222,1.222,0,0,0,.225-.8v-.25Z" transform="translate(-43.646 -84.892)" fill="#2c328c" stroke="#2c328c" stroke-miterlimit="22.926" stroke-width="0.216"/>
    </g>
  </g>
</svg>
