<svg xmlns="http://www.w3.org/2000/svg" width="63.701" height="39.811" viewBox="0 0 63.701 39.811">
  <g id="Grupo_829" data-name="Grupo 829" transform="translate(-323 -4656)">
    <rect id="Retângulo_2580" data-name="Retângulo 2580" width="63.701" height="39.811" rx="4.18" transform="translate(323 4656)" fill="#3957a7"/>
    <path id="Caminho_4409" data-name="Caminho 4409" d="M54.7,120.135H51.59l1.945-11.955h3.113Z" transform="translate(297.61 4561.75)" fill="#fff"/>
    <path id="Caminho_4410" data-name="Caminho 4410" d="M234.282,156.069l-2.966,8.222-.35-1.772h0l-1.046-5.373a1.331,1.331,0,0,0-1.478-1.077h-4.906l-.056.2a11.625,11.625,0,0,1,3.255,1.366l2.7,10.386h3.24l4.952-11.95Z" transform="translate(112.303 4513.861)" fill="#fff"/>
    <path id="Caminho_4411" data-name="Caminho 4411" d="M284.977,168.026h2.859l-2.494-11.95h-2.5a1.432,1.432,0,0,0-1.437.889l-4.642,11.061h3.245l.65-1.777h3.956Zm-3.423-4.225,1.635-4.474.919,4.474Z" transform="translate(86.081 4513.855)" fill="#fff"/>
    <path id="Caminho_4412" data-name="Caminho 4412" d="M268.667,158.763l.442-2.565a8.989,8.989,0,0,0-2.8-.508c-1.524,0-5.211.675-5.211,3.956,0,3.088,4.307,3.128,4.307,4.748s-3.86,1.331-5.134.31l-.462,2.681a8.715,8.715,0,0,0,3.514.675c2.123,0,5.327-1.1,5.327-4.093,0-3.108-4.342-3.4-4.342-4.748S267.336,158.026,268.667,158.763Z" transform="translate(94.423 4514.042)" fill="#fff"/>
    <path id="Caminho_4413" data-name="Caminho 4413" d="M230.956,162.519l-1.046-5.373a1.331,1.331,0,0,0-1.478-1.077h-4.906l-.056.2a12.062,12.062,0,0,1,4.616,2.316,9.309,9.309,0,0,1,2.869,3.931Z" transform="translate(112.308 4513.861)" fill="#f9a533"/>
  </g>
</svg>
