<svg xmlns="http://www.w3.org/2000/svg" width="62.708" height="39.191" viewBox="0 0 62.708 39.191">
  <g id="Grupo_837" data-name="Grupo 837" transform="translate(-584.55 -5028.62)">
    <rect id="Retângulo_2587" data-name="Retângulo 2587" width="62.708" height="39.191" rx="4.18" transform="translate(584.55 5028.62)" fill="#13457c"/>
    <path id="Caminho_4464" data-name="Caminho 4464" d="M918.089,119.943l.58-.015.575-.045.56-.07.56-.1.545-.125.53-.15.525-.18.515-.2.5-.23.485-.245.47-.275.46-.29.44-.315.425-.335.41-.355.39-.375.375-.39.355-.41.335-.425.315-.44.29-.46.275-.47.245-.485.23-.5.2-.515.18-.525.15-.535.125-.54.1-.56.07-.56.045-.575.015-.58-.015-.575-.045-.57-.07-.56-.1-.55-.125-.545-.15-.53-.18-.525-.2-.51-.23-.495-.245-.485-.275-.47-.29-.455-.315-.445-.335-.42-.355-.41-.375-.39-.39-.37-.41-.355-.425-.335-.44-.315-.46-.29-.47-.27-.485-.245-.5-.23-.515-.2-.525-.18-.53-.15-.545-.125-.56-.1-.56-.07-.575-.045-.58-.015-.575.015-.575.045-.56.07-.555.1-.545.125-.535.15-.52.18-.51.2-.5.23-.48.245-.47.27-.455.29-.44.315-.425.335-.405.355-.395.37-.37.39-.355.41-.33.42-.315.445-.29.455-.27.47-.25.485-.225.495-.2.51-.175.525-.15.53-.13.545-.095.55-.07.56-.045.57-.015.575.015.58.045.575.07.56.095.56.13.54.15.535.175.525.2.515.225.5.25.485.27.47.29.46.315.44.33.425.355.41.37.39.395.375.405.355.425.335.44.315.455.29.47.275.48.245.5.23.51.2.52.18.535.15.545.125.555.1.56.07.575.045.575.015Z" transform="translate(-294.658 4939.524)" fill="#fbb231" fill-rule="evenodd"/>
    <path id="Caminho_4465" data-name="Caminho 4465" d="M887.944,119.943l.575-.015.575-.045.56-.07.555-.1.54-.125.535-.15.52-.18.515-.2.495-.23.485-.245.47-.275.455-.29.44-.315.425-.335.4-.355.39-.375.375-.39.35-.41.335-.425.31-.44.295-.46.27-.47.25-.485.225-.5.2-.515.175-.525.15-.535.125-.54.1-.56.07-.56.045-.575.015-.58-.015-.575-.045-.57-.07-.56-.1-.55-.125-.545-.15-.53-.175-.525-.2-.51-.225-.495-.25-.485-.27-.47-.295-.455-.31-.445-.335-.42-.35-.41-.375-.39-.39-.37-.4-.355-.425-.335-.44-.315-.455-.29-.47-.27-.485-.245-.495-.23-.515-.2-.52-.18-.535-.15-.54-.125-.555-.1-.56-.07-.575-.045-.575-.015-.585.015-.57.045-.565.07-.555.1-.545.125-.535.15-.52.18-.515.2-.5.23-.485.245-.47.27-.46.29-.44.315-.425.335-.41.355-.4.37-.375.39-.35.41-.335.42-.315.445-.29.455-.275.47-.245.485-.23.495-.2.51-.18.525-.15.53-.125.545-.1.55-.075.56-.04.57-.015.575.015.58.04.575.075.56.1.56.125.54.15.535.18.525.2.515.23.5.245.485.275.47.29.46.315.44.335.425.35.41.375.39.4.375.41.355.425.335.44.315.46.29.47.275.485.245.5.23.515.2.52.18.535.15.545.125.555.1.565.07.57.045.585.015Z" transform="translate(-279.561 4939.524)" fill="#ec1c2e" fill-rule="evenodd"/>
    <path id="Caminho_4466" data-name="Caminho 4466" d="M911.63,105.46h5.979v-.61H912.15l-.52.61Z" transform="translate(-297.043 4935.819)" fill="#fbb231" fill-rule="evenodd"/>
    <path id="Caminho_4467" data-name="Caminho 4467" d="M909.84,108.18h6.874v-.61H910.2l-.36.61Z" transform="translate(-296.148 4934.458)" fill="#fbb231" fill-rule="evenodd"/>
    <path id="Caminho_4468" data-name="Caminho 4468" d="M908.51,110.89h7.539v-.61h-7.274l-.265.61Z" transform="translate(-295.483 4933.104)" fill="#fbb231" fill-rule="evenodd"/>
    <path id="Caminho_4469" data-name="Caminho 4469" d="M907.59,113.61h8V113H907.78l-.19.61Z" transform="translate(-295.023 4931.744)" fill="#fbb231" fill-rule="evenodd"/>
    <path id="Caminho_4470" data-name="Caminho 4470" d="M907.93,126.74h7.754v-.61H907.74l.19.61Z" transform="translate(-295.098 4925.178)" fill="#fbb231" fill-rule="evenodd"/>
    <path id="Caminho_4471" data-name="Caminho 4471" d="M908.985,129.455h7.179v-.615H908.7l.285.615Z" transform="translate(-295.578 4923.823)" fill="#fbb231" fill-rule="evenodd"/>
    <path id="Caminho_4472" data-name="Caminho 4472" d="M910.495,132.165h6.374v-.615H910.11l.385.615Z" transform="translate(-296.283 4922.467)" fill="#fbb231" fill-rule="evenodd"/>
    <path id="Caminho_4473" data-name="Caminho 4473" d="M912.555,134.875h5.269v-.615h-5.8l.535.615Z" transform="translate(-297.238 4921.112)" fill="#fbb231" fill-rule="evenodd"/>
    <path id="Caminho_4474" data-name="Caminho 4474" d="M907.05,116.315h8.269V115.7h-8.154l-.115.615Z" transform="translate(-294.753 4930.393)" fill="#fbb231" fill-rule="evenodd"/>
    <path id="Caminho_4475" data-name="Caminho 4475" d="M917.13,124.03h3.155v-.61h-3.04l-.115.61Z" transform="translate(-299.793 4926.533)" fill="#fbb231" fill-rule="evenodd"/>
    <path id="Caminho_4476" data-name="Caminho 4476" d="M917.63,121.315h2.9V120.7h-2.79l-.115.615Z" transform="translate(-300.043 4927.893)" fill="#fbb231" fill-rule="evenodd"/>
    <path id="Caminho_4477" data-name="Caminho 4477" d="M906.63,120.7h.82v.615h-.78l-.04-.615Z" transform="translate(-294.543 4927.893)" fill="#fbb231" fill-rule="evenodd"/>
    <path id="Caminho_4478" data-name="Caminho 4478" d="M900.385,118.265l-.05,0-.055,0-.05-.01-.05,0-.045-.01-.045-.005-.05-.01-.055-.01-.055,0-.06-.005-.07,0h-.235l-.1.01-.11,0-.075.015-.075.01-.065.025-.055.02-.055.025-.045.035-.04.035-.035.035-.025.04-.02.045-.005.045v.045l.01.05.015.05.03.045.04.05.075.075.095.055.105.05.115.04.12.04.125.04.125.05.12.045.115.065.1.08.095.095.08.12.06.14.04.175.015.2-.015.24-.025.175-.05.155-.06.145-.075.125-.085.11-.1.095-.1.085-.12.07-.12.06-.125.05-.13.035-.13.03-.13.025-.125.01-.125.01h-.57l-.125-.005-.11,0-.1-.01-.09,0-.09-.01-.075-.01-.075-.015-.07-.01-.065-.02-.065-.015-.06-.025-.06-.02-.065-.025.17-.835.035,0,.04.01.055.015.065.02.065.01.075.02.085.015.09.015.095.015.1.015.1.015.1.01.11,0h.33l.11-.025.085-.03.07-.04.055-.055.035-.05.03-.065.02-.06.015-.055.01-.11-.035-.095-.065-.075-.095-.065-.115-.06-.13-.055-.15-.055-.15-.06-.15-.065-.145-.08-.135-.1-.12-.12-.1-.14-.065-.175-.035-.2.005-.24.015-.15.03-.14.035-.13.045-.12.06-.115.07-.1.08-.095.1-.08.11-.075.125-.06.135-.055.15-.04.17-.035.19-.03.2-.015h.495l.12,0,.1,0,.095.005.09.01.075.005.065.01.065.005.055.015.05,0,.045.01.035,0,.035.005.035.01h.03l-.2.86Z" transform="translate(-289.827 4929.588)" fill="#fff" fill-rule="evenodd"/>
    <path id="Caminho_4479" data-name="Caminho 4479" d="M900.385,118.265h0l-.05,0-.055,0-.05-.01-.05,0-.045-.01-.045-.005-.05-.01-.055-.01-.055,0-.06-.005-.07,0h-.235l-.1.01-.11,0h0l-.075.015-.075.01-.065.025-.055.02-.055.025-.045.035-.04.035-.035.035-.025.04-.02.045-.005.045v.045l.01.05.015.05.03.045.04.05h0l.075.075.095.055.105.05.115.04.12.04.125.04.125.05.12.045.115.065.1.08.095.095.08.12.06.14.04.175.015.2-.015.24h0l-.025.175-.05.155-.06.145-.075.125-.085.11-.1.095-.1.085-.12.07-.12.06-.125.05-.13.035-.13.03-.13.025-.125.01-.125.01h-.57l-.125-.005-.11,0-.1-.01-.09,0-.09-.01-.075-.01-.075-.015-.07-.01-.065-.02-.065-.015-.06-.025-.06-.02-.065-.025.17-.835h0l.035,0,.04.01.055.015.065.02.065.01.075.02.085.015.09.015.095.015.1.015.1.015.1.01.11,0h.33l.11-.025.085-.03.07-.04.055-.055.035-.05.03-.065.02-.06.015-.055h0l.01-.11-.035-.095-.065-.075-.095-.065-.115-.06-.13-.055-.15-.055-.15-.06-.15-.065-.145-.08-.135-.1-.12-.12-.1-.14-.065-.175-.035-.2.005-.24h0l.015-.15.03-.14.035-.13.045-.12.06-.115.07-.1.08-.095.1-.08.11-.075.125-.06.135-.055.15-.04.17-.035.19-.03.2-.015h.495l.12,0,.1,0,.095.005.09.01.075.005.065.01.065.005.055.015.05,0,.045.01.035,0,.035.005.035.01h.03l-.2.86" transform="translate(-289.827 4929.588)" fill="rgba(0,0,0,0)" stroke="#fff" stroke-miterlimit="2.61" stroke-width="0.22"/>
    <path id="Caminho_4480" data-name="Caminho 4480" d="M904.625,115.63h1.055l-.16.92h.635l-.135.855-.67-.02-.365,2.12v.075l.015.065.04.05.05.04.07.025.075.025.08.015.095.01.08,0,.08-.01.065-.01.06-.015.05-.015.035-.01.025-.01.005,0-.13.71-.03.015-.025.015-.03.015-.025.015-.025.015-.03.01-.035.01-.035.015-.035.01-.04,0-.045.01-.045,0-.05.01-.055,0-.065.01-.06,0h-.29l-.155-.01-.13-.015-.12-.02-.105-.03-.085-.035-.075-.035-.065-.045-.05-.05-.035-.055-.025-.065-.02-.065-.015-.07v-.165l.01-.085.01-.095.725-4.14Z" transform="translate(-293.168 4930.428)" fill="#fff" fill-rule="evenodd"/>
    <path id="Caminho_4481" data-name="Caminho 4481" d="M904.625,115.63h1.055l-.16.92h.635l-.135.855-.67-.02-.365,2.12h0v.075l.015.065.04.05.05.04.07.025.075.025.08.015.095.01h0l.08,0,.08-.01.065-.01.06-.015.05-.015.035-.01.025-.01.005,0-.13.71h0l-.03.015-.025.015-.03.015-.025.015-.025.015-.03.01-.035.01-.035.015-.035.01-.04,0-.045.01-.045,0-.05.01-.055,0-.065.01-.06,0h-.29l-.155-.01-.13-.015-.12-.02-.105-.03-.085-.035-.075-.035-.065-.045-.05-.05-.035-.055-.025-.065-.02-.065-.015-.07v-.165l.01-.085.01-.095.725-4.14" transform="translate(-293.168 4930.428)" fill="rgba(0,0,0,0)" stroke="#fff" stroke-miterlimit="2.61" stroke-width="0.22"/>
    <path id="Caminho_4482" data-name="Caminho 4482" d="M909,119.675h0l-.01.065-.005.07.005.07.015.075.03.07.03.07.04.07.045.065.055.065.055.055.06.06.07.045.065.04.08.035.075.025.075.015h0l.1.015.095.015.1.01.1,0,.1,0h.1l.1,0,.1,0,.1-.015.1-.02.1-.02.1-.035.1-.045.11-.045.1-.06.11-.065-.15.935h0l-.06.03-.06.03-.065.025-.055.02-.055.02-.065.02-.06.015-.065.01-.065.01-.075.01-.08,0-.09.01-.1,0h-.53l-.19-.02-.19-.025-.19-.045-.185-.06-.18-.07-.17-.095-.16-.11-.145-.13-.13-.155-.11-.175-.09-.2-.065-.225-.045-.255-.01-.28.02-.31h0l.015-.125.025-.14.03-.145.04-.16.06-.165.065-.165.09-.165.1-.16.12-.15.15-.145.165-.13.19-.115.22-.095.25-.065.27-.045.31-.015h.145l.155.015.155.03.16.035.15.06.15.065.135.095.125.1.115.13.095.15.075.175.05.2.035.23v.255l-.025.29-.055.32-.02.23h-2.77l.175-.75h1.665l.005-.095v-.09l-.01-.08-.015-.08-.025-.07-.03-.065-.035-.055-.04-.055-.045-.045-.05-.04-.055-.03-.06-.035-.06-.02-.06-.015-.065-.01-.065-.01h0l-.075.005-.065.01-.065.015-.065.025-.065.03-.06.035-.055.04-.05.045-.05.055-.045.055-.04.06-.035.065-.035.07-.025.075-.025.075-.015.08-.15.785" transform="translate(-295.173 4929.588)" fill="rgba(0,0,0,0)" stroke="#fff" stroke-miterlimit="2.61" stroke-width="0.22"/>
    <path id="Caminho_4483" data-name="Caminho 4483" d="M924.34,116.6l-.05-.025-.045-.025-.055-.025-.06-.025-.055-.025-.065-.025-.065-.02-.065-.025-.075-.015-.07-.015-.08-.015-.08-.015-.085,0-.09-.01h-.28l-.1.01-.1.01-.11.02-.105.03-.1.04-.1.055-.11.065-.1.085-.1.1-.095.12-.09.14-.085.17-.08.19-.07.21-.06.245-.025.135-.015.13-.005.135v.13l.015.13.025.12.035.115.04.115.06.1.065.1.08.085.09.08.1.07.115.055.13.05.145.035.05.01.055.015.07.005.075.01.085.005h.18l.095-.005.1-.015.1-.015.095-.03.1-.03.1-.04.085-.05.08-.06.075-.07-.17,1.015-.02.02-.025.02-.03.03-.035.02-.04.03-.055.025-.06.03-.07.02-.085.03-.1.015-.115.015-.13.015-.15.01-.17,0-.2,0-.21-.01-.175-.02-.175-.04-.175-.055-.175-.075-.165-.09-.16-.115-.155-.135-.14-.15-.125-.17-.1-.19-.09-.215-.07-.23-.045-.255-.015-.27.01-.295.04-.315.03-.155.035-.155.035-.145.04-.14.04-.135.05-.13.05-.125.055-.12.055-.115.06-.11.06-.11.07-.095.07-.095.075-.095.075-.08.08-.08.085-.08.09-.07.09-.065.095-.06.105-.055.1-.05.1-.045.11-.045.12-.035.115-.03.125-.03.13-.02.125-.02.14-.015.135,0,.145-.005.12.005.12,0,.11.01.115.015.11.015.1.025.1.02.09.02.085.025.08.02.07.025.06.02.055.02.045.015.035.015.02.01-.19,1.05Z" transform="translate(-301.464 4930.598)" fill="#fff" fill-rule="evenodd"/>
    <path id="Caminho_4484" data-name="Caminho 4484" d="M924.34,116.6h0l-.05-.025-.045-.025-.055-.025-.06-.025-.055-.025-.065-.025-.065-.02-.065-.025-.075-.015-.07-.015-.08-.015-.08-.015-.085,0-.09-.01h-.28l-.1.01-.1.01-.11.02-.105.03-.1.04-.1.055-.11.065-.1.085-.1.1-.095.12-.09.14-.085.17-.08.19-.07.21-.06.245h0l-.025.135-.015.13-.005.135v.13l.015.13.025.12.035.115.04.115.06.1.065.1.08.085.09.08.1.07.115.055.13.05.145.035h0l.05.01.055.015.07.005.075.01.085.005h.18l.095-.005.1-.015.1-.015.095-.03.1-.03.1-.04.085-.05.08-.06.075-.07-.17,1.015h0l-.02.02-.025.02-.03.03-.035.02-.04.03-.055.025-.06.03-.07.02-.085.03-.1.015-.115.015-.13.015-.15.01-.17,0-.2,0-.21-.01h0l-.175-.02-.175-.04-.175-.055-.175-.075-.165-.09-.16-.115-.155-.135-.14-.15-.125-.17-.1-.19-.09-.215-.07-.23-.045-.255-.015-.27.01-.295.04-.315h0l.03-.155.035-.155.035-.145.04-.14.04-.135.05-.13.05-.125.055-.12.055-.115.06-.11.06-.11.07-.095.07-.095.075-.095.075-.08.08-.08.085-.08.09-.07.09-.065.095-.06.105-.055.1-.05.1-.045.11-.045.12-.035.115-.03.125-.03.13-.02.125-.02.14-.015.135,0,.145-.005h0l.12.005.12,0,.11.01.115.015.11.015.1.025.1.02.09.02.085.025.08.02.07.025.06.02.055.02.045.015.035.015.02.01-.19,1.05" transform="translate(-301.464 4930.598)" fill="rgba(0,0,0,0)" stroke="#fff" stroke-miterlimit="2.61" stroke-width="0.22"/>
    <path id="Caminho_4485" data-name="Caminho 4485" d="M943.425,120.629h-1.05l.075-.42v-.035l-.06.075-.065.065-.065.065-.065.05-.07.05-.07.04-.07.035-.07.035-.07.025-.075.02-.07.02-.08.01-.075.015-.07,0-.075.005h-.075l-.2-.015-.18-.045-.17-.06-.15-.09-.14-.11-.12-.13-.1-.14-.09-.16-.075-.17-.06-.175-.045-.19-.03-.19-.01-.195.005-.2.015-.19.035-.195.06-.225.065-.21.08-.195.095-.18.1-.175.115-.15.115-.135.125-.125.135-.11.14-.095.145-.085.145-.065.15-.055.15-.03.155-.025.155-.005h.11l.1.015.1.015.09.03.085.03.08.035.075.04.07.04.06.045.055.05.05.05.045.05.04.05.035.05.03.045.02.045h0l.265-1.49h1.035l-.86,4.959Z" transform="translate(-311.205 4930.408)" fill="#fff" fill-rule="evenodd"/>
    <path id="Caminho_4486" data-name="Caminho 4486" d="M943.425,120.629h-1.05l.075-.42v-.035h0l-.06.075-.065.065-.065.065-.065.05-.07.05-.07.04-.07.035-.07.035-.07.025-.075.02-.07.02-.08.01-.075.015-.07,0-.075.005h-.075l-.2-.015-.18-.045-.17-.06-.15-.09-.14-.11-.12-.13-.1-.14-.09-.16-.075-.17-.06-.175-.045-.19-.03-.19-.01-.195.005-.2.015-.19.035-.195h0l.06-.225.065-.21.08-.195.095-.18.1-.175.115-.15.115-.135.125-.125.135-.11.14-.095.145-.085.145-.065.15-.055.15-.03.155-.025.155-.005h.11l.1.015.1.015.09.03.085.03.08.035.075.04.07.04.06.045.055.05.05.05.045.05.04.05.035.05.03.045.02.045h0l.265-1.49h1.035l-.86,4.959" transform="translate(-311.205 4930.408)" fill="rgba(0,0,0,0)" stroke="#fff" stroke-miterlimit="2.61" stroke-width="0.22"/>
    <path id="Caminho_4487" data-name="Caminho 4487" d="M942.925,121.525l.11-.01.095-.02.09-.03.09-.04.08-.045.075-.055.07-.065.065-.07.06-.075.05-.085.05-.085.045-.09.035-.1.03-.095.03-.1.015-.1.02-.1.015-.11v-.1l-.005-.1-.01-.1-.02-.095-.025-.09-.03-.09-.04-.075-.045-.07-.05-.06-.055-.055-.065-.045-.07-.03-.07-.02-.08-.01-.1.01-.095.015-.09.03-.085.04-.08.05-.075.06-.06.065-.065.07-.06.085-.05.085-.05.09-.045.1-.035.1-.03.1-.03.11-.025.11-.02.17.01.18.025.185.05.18.075.155.1.125.125.085.15.03Z" transform="translate(-312.425 4928.598)" fill="#fbb231" fill-rule="evenodd"/>
    <path id="Caminho_4488" data-name="Caminho 4488" d="M893.39,120.64l-.155.84h-.955l.025-.155.02-.14.015-.1.015-.055-.05.06-.065.06-.07.055-.08.055-.09.055-.095.045-.1.045-.1.035-.11.035-.11.03-.11.02-.115.015-.11.01h-.11l-.105-.01-.1-.015-.13-.035-.125-.035-.1-.05-.1-.06-.085-.06-.075-.065-.06-.075-.055-.075-.045-.08-.035-.085-.03-.08-.025-.085-.015-.09-.01-.085-.01-.085v-.08l.015-.15.02-.14.04-.135.05-.13.06-.12.065-.11.08-.1.09-.095.1-.085.1-.08.11-.075.115-.06.12-.05.125-.045.13-.035.13-.02h.01l.02,0,.025-.005.04,0,.045,0,.055-.005.055,0,.065-.01.065,0,.065-.01.07,0,.06-.005.06,0,.055,0,.055-.005h.13l.09.005.085,0h.08l.07,0h.055l.035.005h.015l.005-.025.025-.07.02-.08.005-.07-.015-.085-.035-.075-.045-.07-.06-.055-.075-.05-.075-.035-.095-.02-.095-.01h-.11l-.115,0h-.115l-.12,0-.125,0-.125.01-.12.015-.115.015-.115.015-.11.015-.1.02-.09.02-.085.025-.065.02-.055.03-.045.02.27-.915.085-.035.085-.03.09-.025.09-.02.09-.02.1-.015.1-.015.1-.005.11-.01.11,0h.61l.13,0,.11.01.11.02.12.025.12.035.12.045.115.05.11.065.11.075.095.08.08.095.08.1.055.115.04.12.02.13v.145l-.02.15-.385,2Z" transform="translate(-286.192 4929.558)" fill="#fff" fill-rule="evenodd"/>
    <path id="Caminho_4489" data-name="Caminho 4489" d="M893.39,120.64l-.155.84h-.955l.025-.155.02-.14.015-.1.015-.055h0l-.05.06-.065.06-.07.055-.08.055-.09.055-.095.045-.1.045-.1.035-.11.035-.11.03-.11.02-.115.015-.11.01h-.11l-.105-.01-.1-.015h0l-.13-.035-.125-.035-.1-.05-.1-.06-.085-.06-.075-.065-.06-.075-.055-.075-.045-.08-.035-.085-.03-.08-.025-.085-.015-.09-.01-.085-.01-.085v-.08h0l.015-.15.02-.14.04-.135.05-.13.06-.12.065-.11.08-.1.09-.095.1-.085.1-.08.11-.075.115-.06.12-.05.125-.045.13-.035.13-.02h.01l.02,0,.025-.005.04,0,.045,0,.055-.005.055,0,.065-.01.065,0,.065-.01.07,0,.06-.005.06,0,.055,0,.055-.005h.13l.09.005.085,0h.08l.07,0h.055l.035.005h.015l.005-.025.025-.07.02-.08.005-.07h0l-.015-.085-.035-.075-.045-.07-.06-.055-.075-.05-.075-.035-.095-.02-.095-.01h-.11l-.115,0h-.115l-.12,0-.125,0-.125.01-.12.015-.115.015-.115.015-.11.015-.1.02-.09.02-.085.025-.065.02-.055.03-.045.02.27-.915h0l.085-.035.085-.03.09-.025.09-.02.09-.02.1-.015.1-.015.1-.005.11-.01.11,0h.61l.13,0h0l.11.01.11.02.12.025.12.035.12.045.115.05.11.065.11.075.095.08.08.095.08.1.055.115.04.12.02.13v.145l-.02.15-.385,2" transform="translate(-286.192 4929.558)" fill="rgba(0,0,0,0)" stroke="#fff" stroke-miterlimit="2.61" stroke-width="0.22"/>
    <path id="Caminho_4490" data-name="Caminho 4490" d="M893.655,121.86l-.005-.02-.015-.02-.02-.01-.04-.01-.045,0-.045-.005h-.115l-.06.005-.065,0-.06.01-.06.01-.06.005-.055.01-.045.015-.04.01-.025.005-.03.015-.045.015-.04.015-.05.025-.05.025-.05.03-.05.03-.055.035-.05.04-.045.045-.04.045-.04.05-.025.055-.025.06-.01.06-.005.13.02.1.04.075.05.06.055.035.065.025.06.01.06,0,.115,0,.105-.01.095-.015.085-.025.08-.025.07-.035.065-.035.06-.04.05-.04.04-.045.04-.04.03-.045.03-.045.02-.045.02-.045.01-.04.03-.11.03-.125.02-.12.02-.1Z" transform="translate(-287.372 4927.348)" fill="#ec1c2e" fill-rule="evenodd"/>
    <path id="Caminho_4491" data-name="Caminho 4491" d="M879.845,120.609H878.81l.86-4.979h1.8l.17,2.955,1.24-2.955h1.875l-.88,4.979H882.84l.655-3.72h-.04l-1.545,3.72h-1.165l-.01-.155-.025-.41-.035-.59-.04-.675-.035-.68-.035-.595-.025-.435-.01-.18h-.055l-.63,3.72Z" transform="translate(-280.631 4930.428)" fill="#fff" fill-rule="evenodd"/>
    <path id="Caminho_4492" data-name="Caminho 4492" d="M879.845,120.609H878.81l.86-4.979h1.8l.17,2.955,1.24-2.955h1.875l-.88,4.979H882.84l.655-3.72h-.04l-1.545,3.72h-1.165l-.01-.155-.025-.41-.035-.59-.04-.675-.035-.68-.035-.595-.025-.435-.01-.18h-.055l-.63,3.72" transform="translate(-280.631 4930.428)" fill="rgba(0,0,0,0)" stroke="#fff" stroke-miterlimit="2.61" stroke-width="0.22"/>
    <path id="Caminho_4493" data-name="Caminho 4493" d="M931.08,120.64l-.155.84h-.955l.01-.155.005-.135v-.1l.005-.045-.05.055-.055.055-.07.055-.075.055-.08.045-.09.045-.1.05-.1.035-.1.03-.1.03-.1.02-.1.015-.11.01h-.1l-.1-.01-.1-.015-.14-.035-.12-.035-.1-.05-.1-.06-.085-.06-.07-.065-.06-.075-.055-.075-.045-.08-.035-.085-.03-.08-.02-.085-.015-.09-.01-.085-.01-.085v-.08l.01-.15.025-.14.03-.135.05-.13.055-.12.075-.11.08-.1.085-.095.1-.085.1-.08.11-.075.115-.06.12-.05.125-.045.125-.035.125-.02h.01l.02,0,.025-.005.04,0,.05,0,.05-.005.06,0,.06-.01.065,0,.065-.01.065,0,.065-.005.06,0,.055,0,.05-.005h.135l.09.005.09,0h.085l.07,0h.06l.035.005h.015l.01-.025.01-.07.01-.08.005-.07-.015-.085-.025-.075-.05-.07-.06-.055-.065-.05-.08-.035-.085-.02-.09-.01h-.11l-.11,0h-.12l-.12,0-.125,0-.125.01-.12.015-.115.015-.115.015-.11.015-.1.02-.09.02-.085.025-.07.02-.05.03-.04.02.265-.915.08-.035.09-.03.085-.025.1-.02.09-.02.1-.015.095-.015.105-.005.1-.01.11,0h.595l.13,0,.1.01.115.02.12.025.12.035.115.045.12.05.115.065.1.075.095.08.09.095.075.1.055.115.04.12.03.13v.145l-.02.15-.4,2Z" transform="translate(-305.049 4929.558)" fill="#fff" fill-rule="evenodd"/>
    <path id="Caminho_4494" data-name="Caminho 4494" d="M934.185,124.775l.025-.025.155-.84-.045-.01-.16.845.025-.025v.055l.02,0,.005-.02-.025.025Z" transform="translate(-308.309 4926.293)" fill="#fff" fill-rule="evenodd"/>
    <path id="Caminho_4495" data-name="Caminho 4495" d="M932.255,125.565l.02.03h.955v-.055h-.955l.025.025h-.045l-.005.03h.025l-.02-.03Z" transform="translate(-307.354 4925.473)" fill="#fff" fill-rule="evenodd"/>
    <path id="Caminho_4496" data-name="Caminho 4496" d="M932.32,124.71l-.035-.03-.015.065-.005.1v.135l-.005.155h.045l.01-.155.005-.135-.005-.1v-.035l-.035-.03.04.03Z" transform="translate(-307.359 4925.903)" fill="#fff" fill-rule="evenodd"/>
    <path id="Caminho_4497" data-name="Caminho 4497" d="M929.43,125.2h0l.105.015.1.01.105,0,.11-.005.11-.015.105-.02.1-.03.1-.03.095-.04.1-.045.09-.045.08-.055.08-.05.07-.055.06-.06.05-.06-.04-.03-.045.06-.055.05-.07.055-.07.055-.08.045-.09.045-.095.045-.09.04-.1.03-.1.03-.11.02-.1.015-.11,0-.105.005-.1-.01-.1-.015h0l-.005.045Z" transform="translate(-305.944 4925.903)" fill="#fff" fill-rule="evenodd"/>
    <path id="Caminho_4498" data-name="Caminho 4498" d="M927.59,123.42h0l.005.08.005.085.01.09.02.09.02.08.03.09.03.085.05.08.055.08.06.075.075.07.09.06.095.06.11.05.125.04.14.035.005-.045-.135-.035-.115-.04-.1-.05-.1-.05-.08-.06-.07-.065-.06-.075-.05-.07-.04-.08-.035-.08-.035-.08-.015-.085-.015-.085-.01-.085-.01-.085.005-.08h-.055Z" transform="translate(-305.024 4926.533)" fill="#fff" fill-rule="evenodd"/>
    <path id="Caminho_4499" data-name="Caminho 4499" d="M928.95,120.5h0l-.13.025-.13.035-.125.04-.12.055-.12.06-.115.075-.1.08-.1.09-.09.095-.08.1-.075.115-.055.125-.05.13-.035.135-.025.145-.01.15h.055l.005-.15.02-.135.035-.13.05-.13.055-.12.07-.1.08-.1.08-.095.1-.085.105-.08.1-.065.115-.065.115-.05.125-.04.12-.035.125-.025h0V120.5Z" transform="translate(-305.024 4927.993)" fill="#fff" fill-rule="evenodd"/>
    <path id="Caminho_4500" data-name="Caminho 4500" d="M931.095,120.34h-.045l-.05.01-.055.005h-.06l-.065.01h-.065l-.065.01-.065,0-.06.01-.06.01h-.05l-.05.01-.04,0h-.03l-.015,0h-.01v.045h.01l.025,0h.02l.04,0,.05-.005.05,0,.06-.01.06,0,.065-.01.065,0,.065,0,.065-.01h.06l.055-.005h.1v-.055Z" transform="translate(-306.384 4928.073)" fill="#fff" fill-rule="evenodd"/>
    <path id="Caminho_4501" data-name="Caminho 4501" d="M932.39,120.38l.025-.015H932.4l-.035,0-.06,0-.07-.005h-.175l-.09-.01h-.09v.055h.18l.09.005h.155l.06,0,.035,0h.015l.02-.02-.02.02.02,0v-.025l-.045-.01Z" transform="translate(-307.169 4928.073)" fill="#fff" fill-rule="evenodd"/>
    <path id="Caminho_4502" data-name="Caminho 4502" d="M932.94,119.94h-.005v.07l-.015.08-.01.065-.01.025.045.01.01-.025.01-.07.015-.085.01-.07h-.05Z" transform="translate(-307.679 4928.273)" fill="#fff" fill-rule="evenodd"/>
    <path id="Caminho_4503" data-name="Caminho 4503" d="M932.08,119.14v0h.085l.08.025.075.035.065.045.055.055.045.06.03.07.015.08h.045l-.015-.085-.03-.085-.055-.075-.06-.06-.07-.05-.085-.035-.085-.025-.095-.01v.05Z" transform="translate(-307.269 4928.698)" fill="#fff" fill-rule="evenodd"/>
    <path id="Caminho_4504" data-name="Caminho 4504" d="M928.82,119.31l.04.025.035-.02.05-.025.065-.025.085-.02.09-.02.1-.02.11-.02.11-.015.115-.015.12-.01.125-.01.125-.01h.35l.11,0v-.045l-.11,0-.11-.01h-.12l-.12.01-.125,0-.125.015-.12.01-.115.015-.12.015-.11.02-.1.02-.09.02-.08.02-.075.025-.055.025-.05.025.04.025-.045-.01Z" transform="translate(-305.639 4928.708)" fill="#fff" fill-rule="evenodd"/>
    <path id="Caminho_4505" data-name="Caminho 4505" d="M929.1,117.69l-.015.015-.265.915.045.01.265-.915-.015.02-.015-.045h-.01l-.005.015.015-.015Z" transform="translate(-305.639 4929.398)" fill="#fff" fill-rule="evenodd"/>
    <path id="Caminho_4506" data-name="Caminho 4506" d="M931.07,117.325h0l-.13-.01-.13,0h-.355l-.11.01-.11.005-.1,0-.1.01-.1.015-.095.015-.095.02-.1.015-.09.03-.085.03-.085.035.015.045.085-.035.085-.03.085-.03.09-.015.1-.02.095-.015.095-.015.1-.01.1,0,.11-.005h.465l.13.005h.13v-.045Z" transform="translate(-305.919 4929.588)" fill="#fff" fill-rule="evenodd"/>
    <path id="Caminho_4507" data-name="Caminho 4507" d="M934.06,118.625h0l.02-.155v-.145l-.025-.135-.04-.125-.065-.115-.075-.1-.09-.095-.1-.085-.11-.075-.115-.065-.12-.055-.12-.045-.125-.035-.115-.025-.12-.02-.1-.005v.045l.1.005.11.02.12.025.115.035.12.045.115.055.11.06.1.07.095.085.08.09.08.095.05.115.045.115.025.125v.145l-.02.145h0l.045.01Z" transform="translate(-307.609 4929.573)" fill="#fff" fill-rule="evenodd"/>
    <path id="Caminho_4508" data-name="Caminho 4508" d="M934.525,121.9h0l.395-2-.045-.01-.395,2h0l.045.01Z" transform="translate(-308.469 4928.298)" fill="#fff" fill-rule="evenodd"/>
    <path id="Caminho_4509" data-name="Caminho 4509" d="M931.34,121.855l-.005-.025-.015-.015-.025-.015-.04-.01-.04,0-.05,0h-.06l-.055,0-.06.01-.06,0-.06.01-.06,0-.055.015-.05.005-.05.01-.04.01-.025,0-.03.01-.04.01-.04.015-.05.025-.045.02-.055.03-.045.03-.05.035-.05.045-.045.04-.04.05-.035.055-.025.055-.025.06-.01.065-.005.13.02.1.03.075.045.06.06.035.065.025.065.01.065,0,.11,0,.1-.01.1-.02.09-.025.08-.03.075-.035.07-.04.06-.045.05-.04.045-.05.045-.045.035-.05.025-.045.02-.045.015-.045.01-.045.015-.1.02-.11.015-.1.005-.095Z" transform="translate(-306.229 4927.353)" fill="#fbb231" fill-rule="evenodd"/>
    <path id="Caminho_4510" data-name="Caminho 4510" d="M948.32,124.045l.01-.09.03-.1.05-.09.065-.08.08-.06.09-.05.1-.03.1-.01.11.01.1.03.095.05.075.06.065.08.055.09.03.1.01.09h-.115l-.005-.07-.02-.085-.04-.075-.05-.065-.06-.055-.07-.035-.085-.03-.09-.005-.085.005-.085.03-.07.035-.065.055-.045.065-.04.075-.02.085-.01.07Z" transform="translate(-315.39 4926.478)" fill="#fff" fill-rule="evenodd"/>
    <path id="Caminho_4511" data-name="Caminho 4511" d="M949,124.33v-.23h.21l.045.005.045.005.03.01.025.015.02.025.015.025,0,.025.005.025-.005.035,0,.025-.01.025-.01.01h-.16l.015,0,.025,0,.025-.005.02-.01.015-.01.005-.015.01-.015v-.03l-.005-.02-.005-.015-.015,0-.01-.01h-.02l-.02,0h-.155v.15Z" transform="translate(-315.73 4926.193)" fill="#fff" fill-rule="evenodd"/>
    <path id="Caminho_4512" data-name="Caminho 4512" d="M948.315,124.56l-.005.02.015.11.03.1.05.09.065.075.08.065.09.05.1.03.1.01.11-.01.1-.03.095-.05.075-.065.065-.075.055-.09.03-.1.015-.11-.005-.02h-.115l.005.02-.01.09-.02.085-.04.07-.05.065-.06.055-.07.04-.085.03-.09,0-.085,0-.085-.03-.07-.04-.065-.055-.045-.065-.04-.07-.02-.085-.01-.09v-.02Z" transform="translate(-315.385 4925.963)" fill="#fff" fill-rule="evenodd"/>
    <path id="Caminho_4513" data-name="Caminho 4513" d="M949,124.56v.23h.095v-.19h.095l.115.19h.075l-.115-.19h.03l.025-.01.025-.005.02-.015.005-.01H949Z" transform="translate(-315.73 4925.963)" fill="#fff" fill-rule="evenodd"/>
    <path id="Caminho_4514" data-name="Caminho 4514" d="M1146.62,171.975h0v-.11l.03-.1.055-.09.065-.08.08-.065.09-.045.1-.03h.21l.1.03.09.045.08.065.065.08.055.09.03.1v.11h0v.11l-.03.1-.055.09-.065.075-.08.065-.09.05-.1.03h-.21l-.1-.03-.09-.05-.08-.065-.065-.075-.055-.09-.03-.1v-.11m.44.21h-.095v-.46h.35v.05h0v.06h-.05l.115.19h-.075l-.115-.19h-.095v.19m.095-.23h.085v-.025h0v-.035h-.2v.15h.095m0,.46h.09l.085-.025.07-.04.06-.055.05-.065.04-.07v-.175h0v-.175l-.04-.075-.05-.065-.06-.055-.07-.04-.085-.025h-.175l-.085.025-.075.04-.06.055-.05.065-.04.075v.175h0v.175l.04.07.05.065.06.055.075.04.085.025h.085" transform="translate(-513.695 4878.568)" fill="rgba(0,0,0,0)" stroke="#fff" stroke-miterlimit="2.61" stroke-width="0.22"/>
    <path id="Caminho_4515" data-name="Caminho 4515" d="M935.09,121.485h1.07l.385-2.155.015-.085.02-.085.025-.08.03-.085.04-.085.045-.08.05-.075.06-.075.065-.06.08-.065.085-.055.1-.045.11-.04.12-.03.135-.02.145-.01h.1l.17-.975-.1.01-.1.01-.1.02-.095.025-.08.03-.08.04-.075.04-.075.045-.07.055-.06.05-.065.065-.06.06-.055.065-.055.07-.06.07-.055.075.115-.685H935.8l-.71,4.06Z" transform="translate(-308.774 4929.553)" fill="#fff" fill-rule="evenodd"/>
    <path id="Caminho_4516" data-name="Caminho 4516" d="M935.09,121.485h1.07l.385-2.155h0l.015-.085.02-.085.025-.08.03-.085.04-.085.045-.08.05-.075.06-.075.065-.06.08-.065.085-.055.1-.045.11-.04.12-.03.135-.02.145-.01h.1l.17-.975h0l-.1.01-.1.01-.1.02-.095.025-.08.03-.08.04-.075.04-.075.045-.07.055-.06.05-.065.065-.06.06-.055.065-.055.07-.06.07-.055.075.115-.685H935.8l-.71,4.06h0" transform="translate(-308.774 4929.553)" fill="rgba(0,0,0,0)" stroke="#fff" stroke-miterlimit="2.61" stroke-width="0.22"/>
    <path id="Caminho_4517" data-name="Caminho 4517" d="M914.99,121.485h1.09l.365-2.155.015-.085.02-.08.015-.08.03-.075.03-.075.035-.075.045-.065.055-.065.06-.06.07-.055.08-.045.095-.045.1-.03.12-.03.125-.02.15-.015h.01l.015,0,.02,0h.02l.02.005.015,0h.015l.005-.015.01-.045.015-.065.02-.085.025-.1.025-.1.035-.11.035-.1.03-.07.04-.075.035-.07.04-.065.035-.055.025-.045.02-.03.005-.01H918l-.015,0-.015,0h-.055l-.03-.005-.025-.005h-.03l-.115.01-.105.01-.1.02-.09.02-.09.03-.08.04-.07.04-.07.045-.065.05-.06.055-.055.055-.06.065-.055.065-.055.075-.055.075-.06.075.14-.685H915.7l-.71,4.06Z" transform="translate(-298.723 4929.553)" fill="#fff" fill-rule="evenodd"/>
    <path id="Caminho_4518" data-name="Caminho 4518" d="M914.99,121.485h1.09l.365-2.155h0l.015-.085.02-.08.015-.08.03-.075.03-.075.035-.075.045-.065.055-.065.06-.06.07-.055.08-.045.095-.045.1-.03.12-.03.125-.02.15-.015h.01l.015,0,.02,0h.02l.02.005.015,0h.015l.005-.015.01-.045.015-.065.02-.085.025-.1.025-.1.035-.11.035-.1h0l.03-.07.04-.075.035-.07.04-.065.035-.055.025-.045.02-.03.005-.01H918l-.015,0-.015,0h-.055l-.03-.005-.025-.005h-.03l-.115.01-.105.01-.1.02-.09.02-.09.03-.08.04-.07.04-.07.045-.065.05-.06.055-.055.055-.06.065-.055.065-.055.075-.055.075-.06.075.14-.685H915.7l-.71,4.06h0" transform="translate(-298.723 4929.553)" fill="rgba(0,0,0,0)" stroke="#fff" stroke-miterlimit="2.61" stroke-width="0.22"/>
    <path id="Caminho_4519" data-name="Caminho 4519" d="M948.34,133.16v-.015l.03-.1.05-.085.065-.075.08-.06.09-.05.1-.025.1-.01.11.01.1.025.095.05.075.06.065.075.055.085.03.1v.015h-.11l-.02-.08-.04-.07-.05-.065-.06-.055-.07-.04-.085-.025-.09-.01-.085.01-.085.025-.07.04-.065.055-.045.065-.04.07-.02.08Z" transform="translate(-315.4 4921.873)" fill="#fbb231" fill-rule="evenodd"/>
    <path id="Caminho_4520" data-name="Caminho 4520" d="M949,133.45v-.13h.255l.045.005.03,0,.025.015.02.02.015.025,0,.025.005.035h-.075v-.02l-.005-.02-.005-.015-.015,0-.01-.01h-.02l-.02-.005h-.155v.075Z" transform="translate(-315.73 4921.583)" fill="#fbb231" fill-rule="evenodd"/>
    <path id="Caminho_4521" data-name="Caminho 4521" d="M948.31,133.665l.015-.085h.11v0l-.01.08Z" transform="translate(-315.385 4921.452)" fill="#fbb231" fill-rule="evenodd"/>
    <path id="Caminho_4522" data-name="Caminho 4522" d="M949,133.665v-.085h.095v.075h.095l.035-.005.025-.005.025-.01.02-.005.015-.01.005-.015.01-.015v-.01h.075l-.005.025,0,.025-.01.02-.015.015Z" transform="translate(-315.73 4921.452)" fill="#fbb231" fill-rule="evenodd"/>
    <path id="Caminho_4523" data-name="Caminho 4523" d="M950.22,133.665l-.01-.08v0h.11l.015.085Z" transform="translate(-316.335 4921.452)" fill="#fbb231" fill-rule="evenodd"/>
    <path id="Caminho_4524" data-name="Caminho 4524" d="M948.31,133.75v.01l.015.11.03.1.05.1.065.08.08.065.09.045.1.03.1.01.11-.01.1-.03.095-.045.075-.065.065-.08.055-.1.03-.1.015-.11v-.01h-.115v.01l-.01.09-.02.085-.04.07-.05.065-.06.055-.07.04-.085.03-.09.005-.085-.005-.085-.03-.07-.04-.065-.055-.045-.065-.04-.07-.02-.085-.01-.09v-.01Z" transform="translate(-315.385 4921.367)" fill="#fbb231" fill-rule="evenodd"/>
    <path id="Caminho_4525" data-name="Caminho 4525" d="M949,133.75v.22h.095v-.19h.095l.115.19h.075l-.115-.19h.03l.025-.01.025-.005.02-.015H949Z" transform="translate(-315.73 4921.367)" fill="#fbb231" fill-rule="evenodd"/>
    <path id="Caminho_4526" data-name="Caminho 4526" d="M1109.929,166.51l-.03-.225-.055-.2-.075-.175-.095-.15-.115-.13-.125-.105-.135-.09-.145-.07-.15-.06-.155-.04-.155-.025h-.61l-.275.045-.245.07-.22.1-.19.115-.165.13-.15.145-.12.15-.1.16-.09.165-.065.165-.06.16-.04.16-.03.145v.85l.04.255.065.225.09.2.11.175.13.155.15.13.16.11.17.1.18.075.185.055.19.045.19.025h1.485l.06-.03.06-.03.15-.935-.11.065-.1.06-.11.045-.1.04-.1.035h-1.185l-.075-.025-.075-.035-.065-.04-.07-.045-.06-.055-.055-.055-.055-.065-.045-.065-.04-.07-.03-.07-.025-.07v-.255h2.46v-.23l.055-.32.025-.29Zm-1.03.35h-1.39v-.21l.025-.075.035-.07.035-.065.04-.06.045-.055.05-.055.05-.045.06-.04.055-.035.065-.03h.52l.06.03.055.035.05.04.045.045.04.055.04.055.025.065.025.07v.25Z" transform="translate(-493.548 4881.673)" fill="#fff" fill-rule="evenodd"/>
  </g>
</svg>
