<svg xmlns="http://www.w3.org/2000/svg" width="63.437" height="39.646" viewBox="0 0 63.437 39.646">
  <g id="Grupo_2210" data-name="Grupo 2210" transform="translate(-647.55 -5144.35)">
    <rect id="Retângulo_2597" data-name="Retângulo 2597" width="63.437" height="39.646" rx="4.18" transform="translate(647.55 5144.35)" fill="#084d95"/>
    <path id="Caminho_4605" data-name="Caminho 4605" d="M1106.1,384.313a6.827,6.827,0,0,0,6.858-6.5,6.7,6.7,0,0,0-6.858-6.615h-3.085a6.468,6.468,0,0,0-6.61,6.615,6.575,6.575,0,0,0,6.61,6.5Z" transform="translate(-425.315 4781.659)" fill="#fff"/>
    <path id="Caminho_4606" data-name="Caminho 4606" d="M1105,381.844v-7.081a3.8,3.8,0,0,1,0,7.081m-5.164-3.54a3.813,3.813,0,0,1,2.443-3.54v7.081a3.808,3.808,0,0,1-2.443-3.54m3.8-6a6,6,0,1,0,6,6,6,6,0,0,0-6-6" transform="translate(-425.925 4781.113)" fill="#084d95"/>
    <path id="Caminho_4607" data-name="Caminho 4607" d="M1081.845,402.046c0,.536.384.6.723.6a1.923,1.923,0,0,0,1.993-2.165,2.084,2.084,0,0,0-2.17-2.23,2.4,2.4,0,0,0-.541.03Zm-.678-3.252c0-.622-.324-.582-.637-.587V398h2.018a2.524,2.524,0,0,1,2.771,2.428c0,.688-.4,2.412-2.857,2.412h-1.942v-.182c.415-.04.617-.056.637-.506Z" transform="translate(-417.464 4768.411)" fill="#fff"/>
    <path id="Caminho_4608" data-name="Caminho 4608" d="M1091.273,398.553a.341.341,0,1,1,.339-.349.341.341,0,0,1-.339.349m-.743,4.046h.131c.192,0,.334,0,.334-.228v-1.876c0-.3-.106-.349-.359-.506v-.111c.324-.1.713-.228.743-.248a.238.238,0,0,1,.126-.035c.035,0,.051.04.051.1v2.66c0,.228.152.228.349.228h.116v.182h-1.482Z" transform="translate(-422.411 4768.475)" fill="#fff"/>
    <path id="Caminho_4609" data-name="Caminho 4609" d="M1094.295,402.255c0-.258-.076-.324-.4-.455v-.126a9.108,9.108,0,0,0,.915-.334s.041,0,.041.071v.45a2.023,2.023,0,0,1,1.2-.506c.587,0,.794.43.794.971v1.79c0,.228.152.228.349.228h.126v.182h-1.482v-.182h.121c.192,0,.334,0,.334-.228v-1.8a.557.557,0,0,0-.637-.592,1.851,1.851,0,0,0-.8.334v2.053c0,.228.152.228.349.228h.126v.182h-1.482v-.182h.126c.192,0,.334,0,.334-.228Z" transform="translate(-424.052 4766.76)" fill="#fff"/>
    <path id="Caminho_4610" data-name="Caminho 4610" d="M1102.415,402.35c.172,0,.192-.091.192-.172a.587.587,0,0,0-.6-.637c-.425,0-.713.314-.8.809Zm-1.229.223a1.764,1.764,0,0,0,0,.4,1.158,1.158,0,0,0,1.011,1.2,1.33,1.33,0,0,0,.936-.465l.1.1a1.624,1.624,0,0,1-1.285.784,1.4,1.4,0,0,1-1.325-1.517c0-1.36.915-1.76,1.4-1.76a1.1,1.1,0,0,1,1.173,1.087.911.911,0,0,1,0,.126l-.061.04Z" transform="translate(-427.398 4766.777)" fill="#fff"/>
    <path id="Caminho_4611" data-name="Caminho 4611" d="M1106.035,404.319h.187c.192,0,.334,0,.334-.228v-1.947c0-.212-.258-.258-.359-.314v-.106c.506-.217.784-.395.845-.395s.061,0,.061.091v.622h0c.172-.268.465-.713.885-.713a.379.379,0,0,1,.394.369.339.339,0,0,1-.324.354c-.218,0-.218-.167-.46-.167a.587.587,0,0,0-.506.577v1.629c0,.228.136.228.334.228h.39v.182h-1.8Z" transform="translate(-430.067 4766.766)" fill="#fff"/>
    <path id="Caminho_4612" data-name="Caminho 4612" d="M1111.207,403.517a.915.915,0,0,0,.875.845.506.506,0,0,0,.561-.506c0-.819-1.517-.556-1.517-1.669a.951.951,0,0,1,1.077-.885,1.831,1.831,0,0,1,.789.2l.051.708h-.162a.713.713,0,0,0-.754-.683.506.506,0,0,0-.541.455c0,.809,1.608.561,1.608,1.649,0,.46-.369.941-1.194.941a1.825,1.825,0,0,1-.844-.233l-.076-.8Z" transform="translate(-432.568 4766.784)" fill="#fff"/>
    <path id="Caminho_4613" data-name="Caminho 4613" d="M1123.425,399.184h-.172a1.32,1.32,0,0,0-1.482-1.138,1.976,1.976,0,0,0-1.957,2.2,2.269,2.269,0,0,0,2.068,2.407,1.411,1.411,0,0,0,1.4-1.2l.157.04-.157,1.012a3.89,3.89,0,0,1-1.517.369,2.468,2.468,0,0,1-2.645-2.6,2.529,2.529,0,0,1,2.625-2.443,5.009,5.009,0,0,1,1.639.369Z" transform="translate(-436.538 4768.497)" fill="#fff"/>
    <path id="Caminho_4614" data-name="Caminho 4614" d="M1128.13,402.243h.131c.192,0,.334,0,.334-.228v-3.859c0-.45-.1-.465-.369-.541V397.5a4.323,4.323,0,0,0,.713-.3.7.7,0,0,1,.152-.076c.04,0,.056.04.056.1v4.789c0,.228.152.228.349.228h.116v.182h-1.482Z" transform="translate(-440.995 4768.841)" fill="#fff"/>
    <path id="Caminho_4615" data-name="Caminho 4615" d="M1134.024,404.24c0,.126.076.132.192.132h.278v.147a7.186,7.186,0,0,0-1.012.212h-.035v-.561a1.871,1.871,0,0,1-1.229.582.749.749,0,0,1-.764-.824v-1.775c0-.182-.025-.354-.415-.389v-.132c.248,0,.8-.051.9-.051s.076.051.076.2v1.79c0,.207,0,.8.6.8a1.553,1.553,0,0,0,.84-.42v-1.866c0-.137-.334-.212-.582-.283v-.126c.622-.04,1.011-.1,1.082-.1s.056.051.056.126Z" transform="translate(-442.433 4766.642)" fill="#fff"/>
    <path id="Caminho_4616" data-name="Caminho 4616" d="M1138.731,401.581a.749.749,0,0,0,.713.708c.743,0,1.052-.728,1.052-1.345a1.32,1.32,0,0,0-1.108-1.371,1.067,1.067,0,0,0-.657.329Zm0-1.886a1.755,1.755,0,0,1,1.011-.506,1.35,1.35,0,0,1,1.29,1.457,1.75,1.75,0,0,1-1.659,1.816,2.054,2.054,0,0,1-.966-.243l-.207.157-.147-.076a8.222,8.222,0,0,0,.1-1.234v-2.979c0-.45-.106-.465-.369-.541v-.111a4.383,4.383,0,0,0,.713-.3.663.663,0,0,1,.152-.076c.04,0,.056.04.056.1Z" transform="translate(-445.764 4768.875)" fill="#fff"/>
    <path id="Caminho_4617" data-name="Caminho 4617" d="M1080.52,413.1h.056c.136,0,.278,0,.278-.217v-1.977c0-.2-.142-.217-.278-.217h-.056v-.111h1.153v.111h-.051c-.136,0-.278,0-.278.217v1.977c0,.2.147.217.278.217h.051v.111h-1.153Z" transform="translate(-417.464 4762.193)" fill="#fff"/>
    <path id="Caminho_4618" data-name="Caminho 4618" d="M1081.643,413.185V413.1h-.035c-.137,0-.293,0-.3-.233v-1.978c0-.207.162-.233.3-.233h.035v-.081h-1.118v.081h.035c.137,0,.293,0,.293.233v1.978c0,.207-.162.233-.293.233h-.035v.081h1.118m0,.03h-1.153v-.147h.066c.136,0,.263,0,.263-.2v-1.977c0-.187-.126-.2-.263-.2h-.066v-.147h1.153v.147h-.071c-.137,0-.263,0-.263.2v1.977c0,.187.126.2.263.2h.071Z" transform="translate(-417.449 4762.208)" fill="#fff"/>
    <path id="Caminho_4619" data-name="Caminho 4619" d="M1085.513,412.471V411.05a.308.308,0,0,0-.329-.354h-.081v-.111h.971v.111h-.015c-.157,0-.334.03-.334.48v1.715a2.459,2.459,0,0,0,0,.379h-.142l-1.942-2.165v1.553c0,.329.066.44.354.44h.066v.111h-1.012V413.1h.056c.258,0,.339-.177.339-.48V411.03a.339.339,0,0,0-.344-.339h-.051v-.111h.774Z" transform="translate(-418.714 4762.193)" fill="#fff"/>
    <path id="Caminho_4620" data-name="Caminho 4620" d="M1085.483,412.447Zm0,0Zm.076.784h.126a2.386,2.386,0,0,1,0-.364v-1.72c0-.45.192-.506.354-.506h.04v-.081h-.951v.081h.066a.329.329,0,0,1,.344.369v1.426h0l-1.679-1.9h-.754v.081h.035a.354.354,0,0,1,.359.354v1.588c0,.3-.086.506-.354.506h-.035v.081h.976v-.081h-.045c-.3,0-.369-.132-.369-.46v-1.6Zm.142.03h-.172l-1.917-2.134v1.517c0,.329.056.42.339.425h.081v.147h-1.011v-.147h.071c.248,0,.319-.162.324-.46V411.02a.324.324,0,0,0-.329-.324H1083v-.147h.784l1.659,1.866v-1.386a.3.3,0,0,0-.314-.339h-.1v-.147H1086v.147h.035c-.157,0-.313,0-.319.46v1.72a2.522,2.522,0,0,0,0,.379h0Z" transform="translate(-418.689 4762.213)" fill="#fff"/>
    <path id="Caminho_4621" data-name="Caminho 4621" d="M1089.76,410.708c-.283,0-.293.066-.349.344h-.111c0-.106.035-.212.045-.319a2.477,2.477,0,0,0,0-.319h.091c.03.111.126.111.228.111h1.947c.1,0,.2,0,.2-.116h.091c0,.1-.03.2-.04.3a3.032,3.032,0,0,0,0,.3l-.111.04c0-.142-.025-.364-.278-.364h-.617v2.023c0,.288.131.324.314.324h.071v.111h-1.249v-.111h.071c.207,0,.314,0,.314-.319V410.7Z" transform="translate(-421.803 4762.277)" fill="#fff"/>
    <path id="Caminho_4622" data-name="Caminho 4622" d="M1091.242,413.112h-1.254v-.147h.086c.207,0,.293,0,.3-.3v-2.023h-.6v-.035h.632v2.023c0,.3-.121.334-.329.334h-.056v.081h1.219v-.081h-.066c-.182,0-.329-.046-.329-.339V410.6h.637c.253,0,.283.217.293.354l.081-.03v-.3a.7.7,0,0,1,.04-.288h-.056c0,.111-.121.116-.217.111h-1.967c-.091,0-.187,0-.217-.111h-.061a2.375,2.375,0,0,1,0,.3,2,2,0,0,1-.04.3h.081c.051-.263.081-.349.364-.344v.071c-.278,0-.273.051-.334.329h-.147c0-.106.035-.212.046-.319a2.136,2.136,0,0,0,0-.319h.121c.025.1.1.1.192.1h1.962c.106,0,.182,0,.187-.1h.106c0,.1-.03.2-.04.3a3.032,3.032,0,0,0,0,.3h0l-.131.051h0c0-.142,0-.349-.263-.349h-.6v1.993c0,.283.116.3.3.309h.086v.147Z" transform="translate(-421.803 4762.312)" fill="#fff"/>
    <path id="Caminho_4623" data-name="Caminho 4623" d="M1094.71,413.1h.056c.136,0,.278,0,.278-.217v-1.977c0-.2-.142-.217-.278-.217h-.056v-.111h1.907v.577l-.111.03c0-.243-.061-.44-.46-.44h-.506v1.012h.45c.228,0,.278-.126.3-.334h.111v.87h-.111c0-.228-.035-.374-.293-.374h-.45v.9c0,.248.218.248.46.248.455,0,.652-.03.764-.46l.106.025c-.051.2-.1.4-.126.6h-2.023Z" transform="translate(-424.477 4762.193)" fill="#fff"/>
    <path id="Caminho_4624" data-name="Caminho 4624" d="M1096.748,413.254c.035-.192.076-.379.121-.572h-.076c-.111.425-.334.46-.779.455-.238,0-.475,0-.475-.263v-.9h.47c.263,0,.288.157.308.369h.081v-.84h-.081c0,.2-.081.334-.313.334h-.465v-1.011h.541c.395,0,.455.2.475.435h.081v-.546h-1.866v.081h.035c.131,0,.293,0,.293.233v1.977c0,.207-.162.233-.293.233h-.035v.081h2.023m0,.03h-2.023v-.147h.071c.136,0,.263,0,.263-.2v-1.977c0-.182-.126-.2-.263-.2h-.071v-.147h1.907v.572h0l-.132.035h0c0-.243-.056-.425-.445-.425h-.506v.956h.435c.218,0,.258-.111.283-.319h.147v.87h0l-.131.025h0c-.025-.233-.025-.354-.278-.359h-.435v.824c0,.228.2.228.445.228.455,0,.637,0,.749-.45h0l.121.03h0a6.046,6.046,0,0,0-.126.6h0Z" transform="translate(-424.507 4762.139)" fill="#fff"/>
    <path id="Caminho_4625" data-name="Caminho 4625" d="M1100.1,411.854h.187c.379,0,.582-.142.582-.587a.506.506,0,0,0-.551-.551,1.989,1.989,0,0,0-.218,0Zm-.506-.875c0-.273-.152-.288-.268-.288h-.066v-.111h1.194c.475,0,.9.126.9.663a.713.713,0,0,1-.506.663l.647.966a.42.42,0,0,0,.364.228v.111h-.723a10.4,10.4,0,0,1-.784-1.224h-.248v.829c0,.288.137.3.308.3h.066v.111h-1.193v-.111h.066c.142,0,.268-.066.268-.2Z" transform="translate(-426.726 4762.193)" fill="#fff"/>
    <path id="Caminho_4626" data-name="Caminho 4626" d="M1100.3,411.839c.374,0,.561-.131.566-.571a.506.506,0,0,0-.536-.536,1.582,1.582,0,0,0-.2,0v1.092Zm-.187.03h0v-1.153h0a1.713,1.713,0,0,1,.218,0,.531.531,0,0,1,.566.566c0,.45-.217.6-.6.6Zm0,.1h.258a11.679,11.679,0,0,0,.774,1.214h.708V413.1a.43.43,0,0,1-.364-.233l-.657-.981h0a.693.693,0,0,0,.506-.647c0-.506-.41-.647-.88-.647h-1.173v.081h.051c.116,0,.283,0,.283.3V412.9c0,.152-.142.223-.283.223h-.051v.081h1.138v-.081h-.051c-.172,0-.324,0-.324-.319v-.824Zm1.76,1.254h-.733a10.531,10.531,0,0,1-.779-1.214h-.208v.8c0,.283.116.283.293.283h.086v.147h-1.194V413.1h.086c.137,0,.253-.061.253-.187v-1.917c0-.268-.132-.268-.253-.268h-.086v-.147h1.194c.475,0,.915.132.915.683a.723.723,0,0,1-.506.673l.632.951a.4.4,0,0,0,.354.217h0v.142Z" transform="translate(-426.736 4762.193)" fill="#fff"/>
    <path id="Caminho_4627" data-name="Caminho 4627" d="M1107.008,412.471V411.05a.314.314,0,0,0-.329-.354h-.081v-.111h.971v.111h-.056c-.157,0-.334.03-.334.48v1.715a2.589,2.589,0,0,0,0,.379h-.142l-1.942-2.165v1.553c0,.329.066.44.354.44h.066v.111H1104.5V413.1h.051c.263,0,.339-.177.339-.48V411.03a.339.339,0,0,0-.344-.339h-.051v-.111h.769Z" transform="translate(-429.316 4762.193)" fill="#fff"/>
    <path id="Caminho_4628" data-name="Caminho 4628" d="M1107.048,412.447Zm0,0Zm.076.784h.126a2.553,2.553,0,0,1,0-.364v-1.72c0-.45.192-.506.354-.506h.041v-.081h-.951v.081h.066a.329.329,0,0,1,.344.369v1.426h0l-1.679-1.9h-.754v.081h.035a.354.354,0,0,1,.359.354v1.588c0,.3-.086.506-.354.506h-.035v.081h.976v-.081h-.051c-.3,0-.369-.132-.374-.46v-1.6Zm.142.03h-.157l-1.917-2.134v1.517c0,.329.056.42.339.425h.081v.147H1104.6v-.147h.071c.248,0,.319-.162.324-.465v-1.588a.324.324,0,0,0-.329-.324h-.066v-.147h.784l1.659,1.866v-1.386c0-.3-.2-.339-.314-.339h-.1v-.147h.971v.147h-.071c-.157,0-.314,0-.319.46v1.72a2.414,2.414,0,0,0,0,.379h0Z" transform="translate(-429.365 4762.213)" fill="#fff"/>
    <path id="Caminho_4629" data-name="Caminho 4629" d="M1111.758,410.913h0l-.349,1.067h.7Zm-.551,1.669a1.563,1.563,0,0,0-.086.293c0,.111.157.131.283.131h.041v.111h-.865v-.111h0a.339.339,0,0,0,.329-.248l.607-1.73a3.127,3.127,0,0,0,.142-.47,1.97,1.97,0,0,0,.344-.162h.03a.025.025,0,0,1,.025,0l.035.1.693,1.972c.045.131.091.273.142.384a.237.237,0,0,0,.248.152h0v.111H1112.1V413h.041c.086,0,.233,0,.233-.111a1.148,1.148,0,0,0-.076-.273l-.147-.435h-.855Z" transform="translate(-432.321 4762.286)" fill="#fff"/>
    <path id="Caminho_4630" data-name="Caminho 4630" d="M1111.788,410.906Zm-.319,1.047h.663l-.329-1.011Zm-.045.03.359-1.1h0l.359,1.1Zm.774,1.108h1.057v-.081h0a.253.253,0,0,1-.263-.162c-.051-.116-.1-.253-.142-.384l-.693-1.972-.03-.091h-.035a1.417,1.417,0,0,1-.334.152,3.22,3.22,0,0,1-.142.47l-.6,1.73a.359.359,0,0,1-.344.258h0v.081h.829v-.081h0c-.121,0-.293,0-.3-.147a1.569,1.569,0,0,1,.081-.3h0l.126-.4h.88l.152.45a1.176,1.176,0,0,1,.076.278c0,.116-.167.121-.253.126h0Zm1.067.035h-1.072v-.147h.056c.086,0,.218,0,.218-.091a1.156,1.156,0,0,0-.076-.268l-.142-.425h-.829l-.116.379a1.6,1.6,0,0,0-.086.288c0,.091.142.116.268.116h.061v.147h-.86v-.147h.041a.323.323,0,0,0,.313-.233l.607-1.73a4.6,4.6,0,0,0,.152-.48,2.017,2.017,0,0,0,.344-.162h.035a.046.046,0,0,1,.041,0l.035.1.693,1.972c.046.132.091.273.142.384a.217.217,0,0,0,.233.142h.04v.147Z" transform="translate(-432.365 4762.297)" fill="#fff"/>
    <path id="Caminho_4631" data-name="Caminho 4631" d="M1115.68,410.708c-.283,0-.293.066-.349.344h-.111c0-.106.035-.212.046-.319a2.313,2.313,0,0,0,0-.319h.091c.03.111.126.111.228.111h1.947c.1,0,.2,0,.2-.116h.091c0,.1-.03.2-.041.3s0,.2,0,.3l-.111.04c0-.142-.025-.364-.278-.364h-.617v2.023c0,.288.131.324.313.324h.071v.111h-1.254v-.111h.071c.207,0,.313,0,.313-.319V410.7Z" transform="translate(-434.614 4762.277)" fill="#fff"/>
    <path id="Caminho_4632" data-name="Caminho 4632" d="M1117.177,413.116h-1.254v-.147h.086c.208,0,.293,0,.3-.3v-2.023h-.6v-.035h.637v2.023c0,.3-.121.334-.329.334h-.056v.081h1.219v-.081h-.056c-.182,0-.329-.046-.329-.339v-2.023h.637c.253,0,.283.217.293.354l.081-.03v-.293a.809.809,0,0,1,.035-.288h-.056c0,.111-.121.116-.217.111H1115.6c-.086,0-.187,0-.218-.111h-.061a2.1,2.1,0,0,1,0,.309,2.016,2.016,0,0,1-.046.3h.081c.051-.263.081-.349.364-.344v.061c-.278,0-.273.051-.334.329h-.147c0-.106.035-.212.046-.319a2.1,2.1,0,0,0,0-.319h.121c.025.1.1.1.192.1h1.967c.106,0,.182,0,.187-.1h.106c0,.1-.03.2-.041.3s0,.2,0,.3h0l-.136.051h0c0-.142,0-.349-.263-.349h-.6v1.993c0,.283.116.3.3.309h.086v.147Z" transform="translate(-434.624 4762.307)" fill="#fff"/>
    <path id="Caminho_4633" data-name="Caminho 4633" d="M1120.675,413.1h.056c.137,0,.278,0,.278-.217v-1.977c0-.2-.142-.217-.278-.217h-.056v-.111h1.148v.111h-.051c-.137,0-.278,0-.278.217v1.977c0,.2.142.217.278.217h.051v.111h-1.153Z" transform="translate(-437.308 4762.193)" fill="#fff"/>
    <path id="Caminho_4634" data-name="Caminho 4634" d="M1121.793,413.185V413.1h-.035c-.137,0-.3,0-.3-.233v-1.978c0-.207.162-.233.3-.233h.035v-.081h-1.118v.081h.035c.131,0,.293,0,.293.233v1.978c0,.207-.162.233-.293.233h-.035v.081h1.118m0,.03h-1.153v-.147h.071c.137,0,.263,0,.263-.2v-1.977c0-.182-.126-.2-.263-.2h-.071v-.147h1.148v.147h-.066c-.142,0-.263,0-.263.2v1.977c0,.187.126.2.263.2h.066v.147Z" transform="translate(-437.293 4762.208)" fill="#fff"/>
    <path id="Caminho_4635" data-name="Caminho 4635" d="M1124.586,413.044c.733,0,.86-.647.86-1.194s-.3-1.219-.926-1.219-.855.587-.855,1.092c0,.678.309,1.32.92,1.32m-.056-2.579a1.325,1.325,0,0,1,1.446,1.3,1.38,1.38,0,0,1-1.426,1.446,1.335,1.335,0,0,1-1.411-1.355,1.37,1.37,0,0,1,1.391-1.391" transform="translate(-438.528 4762.253)" fill="#fff"/>
    <path id="Caminho_4636" data-name="Caminho 4636" d="M1123.705,411.744c0-.506.2-1.108.875-1.108s.941.683.941,1.234-.131,1.209-.875,1.209v-.03c.718,0,.839-.627.845-1.178s-.293-1.2-.905-1.2-.84.577-.84,1.077c0,.673.309,1.3.905,1.3v.03c-.627,0-.936-.657-.936-1.335m-.506.132a1.391,1.391,0,0,1,1.411-1.411v.035a1.355,1.355,0,0,0-1.376,1.376,1.315,1.315,0,0,0,1.4,1.335,1.371,1.371,0,0,0,1.411-1.426,1.3,1.3,0,0,0-1.431-1.285v-.035a1.34,1.34,0,0,1,1.462,1.32,1.4,1.4,0,0,1-1.441,1.462,1.35,1.35,0,0,1-1.426-1.371" transform="translate(-438.563 4762.253)" fill="#fff"/>
    <path id="Caminho_4637" data-name="Caminho 4637" d="M1131.428,412.476h0V411.06a.314.314,0,0,0-.329-.354h-.081V410.6h.971v.111h-.056c-.157,0-.334.03-.334.48V412.9a2.37,2.37,0,0,0,0,.379h-.076l-1.942-2.165v1.553c0,.329.066.44.354.44H1130v.111h-1.011v-.111h.056c.263,0,.339-.177.339-.48V411.04a.339.339,0,0,0-.344-.339h-.051v-.111h.769Z" transform="translate(-441.42 4762.188)" fill="#fff"/>
    <path id="Caminho_4638" data-name="Caminho 4638" d="M1131.4,412.447Zm0,0Zm.076.784h.121a2.705,2.705,0,0,1,0-.364v-1.72c0-.455.192-.506.354-.506h.04v-.081h-.956v.081h.066a.329.329,0,0,1,.344.369v1.426h0l-1.679-1.9h-.754v.081h.03a.354.354,0,0,1,.359.354v1.588c0,.3-.086.506-.354.506h-.071v.081h.976v-.081h-.051c-.3,0-.369-.132-.369-.46v-1.6Zm.142.03h-.157l-1.917-2.134v1.517c0,.329.056.42.339.425h.081v.147h-1.012v-.147h.071c.248,0,.319-.162.324-.46V411.02a.324.324,0,0,0-.329-.324h-.066v-.147h.784l1.659,1.866v-1.386a.3.3,0,0,0-.314-.339h-.1v-.147h.971v.147h-.071c-.157,0-.314,0-.319.46v1.72a2.414,2.414,0,0,0,0,.379h0Z" transform="translate(-441.4 4762.213)" fill="#fff"/>
    <path id="Caminho_4639" data-name="Caminho 4639" d="M1136.118,410.916h0l-.349,1.067h.708Zm-.551,1.669a1.6,1.6,0,0,0-.081.293c0,.111.157.131.283.131h.041v.111h-.86v-.111h0a.339.339,0,0,0,.329-.248l.607-1.73a3.091,3.091,0,0,0,.136-.47,1.952,1.952,0,0,0,.344-.162h.056l.035.1.693,1.972c.046.131.091.273.142.384a.238.238,0,0,0,.248.152h0v.111h-1.072V413h.04c.086,0,.233,0,.233-.111a1.174,1.174,0,0,0-.076-.273l-.147-.435h-.855Z" transform="translate(-444.366 4762.282)" fill="#fff"/>
    <path id="Caminho_4640" data-name="Caminho 4640" d="M1136.128,410.9Zm-.319,1.047h.657l-.329-1.011Zm-.045.03.359-1.1h0l.359,1.1Zm.769,1.108h1.057V413h0a.253.253,0,0,1-.263-.162c-.051-.116-.1-.253-.142-.384l-.693-1.972-.03-.091h-.035a1.415,1.415,0,0,1-.334.152,3.205,3.205,0,0,1-.142.47l-.607,1.73A.359.359,0,0,1,1135,413h0v.081h.83V413h-.025c-.121,0-.293,0-.3-.147a1.6,1.6,0,0,1,.086-.3h0l.126-.4h.88l.152.45a1.139,1.139,0,0,1,.076.278c0,.116-.162.121-.248.126h-.061Zm1.072.03h-1.072v-.147h.056c.086,0,.218,0,.218-.091a1.169,1.169,0,0,0-.076-.268l-.142-.425h-.834l-.116.379a1.441,1.441,0,0,0-.081.288c0,.091.142.116.268.116h.061v.147h-.86v-.147h.035a.329.329,0,0,0,.313-.233l.6-1.73a4.6,4.6,0,0,0,.152-.48,2.028,2.028,0,0,0,.344-.162h.035a.04.04,0,0,1,.04,0l.035.1.693,1.972c.046.132.091.273.142.384a.223.223,0,0,0,.233.142h.041v.147Z" transform="translate(-444.39 4762.303)" fill="#fff"/>
    <path id="Caminho_4641" data-name="Caminho 4641" d="M1141.175,412.861c0,.152.106.2.228.212a2.692,2.692,0,0,0,.506,0,.541.541,0,0,0,.359-.2.854.854,0,0,0,.116-.273h.111c-.04.217-.1.425-.142.642h-2.023v-.111h.051c.137,0,.283,0,.283-.253v-1.937c0-.2-.147-.217-.283-.217h-.051v-.111h1.168v.111h-.1c-.142,0-.258,0-.258.2Z" transform="translate(-447.025 4762.179)" fill="#fff"/>
    <path id="Caminho_4642" data-name="Caminho 4642" d="M1142.338,413.17c.046-.2.091-.4.131-.607h-.076a.86.86,0,0,1-.116.263.561.561,0,0,1-.374.207h-.5a.221.221,0,0,1-.243-.228v-1.947c0-.212.131-.223.273-.223h.076v-.081h-1.138v.081h.035c.137,0,.3,0,.3.233v1.937c0,.243-.162.268-.3.268h-.035v.081h1.962m0,.03h-2.023v-.147h.066c.136,0,.268,0,.268-.238v-1.937c0-.182-.132-.2-.268-.2h-.066v-.147h1.168v.147h-.111c-.147,0-.238,0-.238.187V412.8c0,.142.1.177.213.192h.207a2.774,2.774,0,0,0,.283,0,.505.505,0,0,0,.349-.2.808.808,0,0,0,.111-.263h.142c-.046.217-.1.425-.142.642h0Z" transform="translate(-447.015 4762.223)" fill="#fff"/>
  </g>
</svg>
