<svg xmlns="http://www.w3.org/2000/svg" width="63.701" height="39.811" viewBox="0 0 63.701 39.811">
  <g id="Grupo_2209" data-name="Grupo 2209" transform="translate(-551 -4673)">
    <rect id="Retângulo_4113" data-name="Retângulo 4113" width="63.701" height="39.811" rx="4.18" transform="translate(551 4673)" fill="#b82126"/>
    <g id="hipercard-seeklogo.com" transform="translate(553.003 4680.396)">
      <path id="Caminho_4587" data-name="Caminho 4587" d="M16.033,0H9.98C7.306.126,5.119,1.2,4.488,3.425c-.329,1.159-.51,2.431-.768,3.632C2.412,13.164,1.252,19.439,0,25.423H47.126c3.643,0,6.145-.77,6.821-3.661.314-1.343.615-2.865.915-4.341C56.033,11.667,57.206,5.913,58.405,0H16.033" fill="#b82126"/>
      <path id="Caminho_4588" data-name="Caminho 4588" d="M80.2,74.056c-.654.64-2.488.822-2.3-.708.156-1.27,1.539-1.54,3.038-1.357A3.772,3.772,0,0,1,80.2,74.056ZM78.14,69.1c-.062.35-.158.668-.236,1,.748-.188,3.079-.763,3.3.236a1.748,1.748,0,0,1-.147.944c-2.107-.2-3.825.15-4.277,1.652a1.863,1.863,0,0,0,.678,2.271,2.821,2.821,0,0,0,3.274-.914,3.852,3.852,0,0,0-.089.944h1.091a16.926,16.926,0,0,1,.324-2.832,11.181,11.181,0,0,0,.354-2.3C82.323,68.485,79.641,69.058,78.14,69.1Zm10.942,5.456c-.854.018-1.278-.51-1.3-1.386-.034-1.534.639-3.239,2.006-3.392a3.326,3.326,0,0,1,1.563.236C90.925,71.739,91.08,74.515,89.082,74.557Zm2.831-8.111c-.109.953-.254,1.87-.442,2.743-3.111-.985-5.019,1.3-4.985,4.129a2.221,2.221,0,0,0,.443,1.475,2.869,2.869,0,0,0,3.126.266,2.2,2.2,0,0,0,.442-.442c.082-.1.212-.373.236-.3a6.6,6.6,0,0,0-.118.914h1.15a80.333,80.333,0,0,1,1.416-8.789ZM59.441,74.086c-.679.719-2.347.708-2.477-.5a6.009,6.009,0,0,1,.236-1.622c.1-.551.169-1.08.265-1.563.668-.816,2.632-.915,2.832.442A4.5,4.5,0,0,1,59.441,74.086Zm1-4.984a3.348,3.348,0,0,0-2.949.536c0,.02-.014.023-.03.024l.03-.024a.027.027,0,0,0,0-.005c.01-.2.079-.334.089-.531H56.491c-.455,3.026-.994,5.966-1.563,8.878H56.2c.184-1.134.3-2.33.56-3.392.29,1.117,2.181.9,2.979.472C61.382,74.168,62.652,69.931,60.444,69.1Zm6.017,2.124H63.481a1.758,1.758,0,0,1,1.681-1.475C66.076,69.715,66.73,70.085,66.46,71.225Zm-1.209-2.242a3.311,3.311,0,0,0-2.242.914,5.124,5.124,0,0,0-1.062,3.716c.229,2.043,2.773,1.97,4.808,1.475.035-.359.121-.665.177-1-.838.314-2.294.751-3.156.206-.651-.412-.655-1.454-.442-2.36,1.368-.044,2.789-.035,4.159,0a4.36,4.36,0,0,0,.118-1.976C67.323,69.119,66.3,68.9,65.251,68.983ZM54.1,69.1c-.034,0-.032.047-.03.088-.279,2.09-.658,4.081-1.062,6.046h1.268c.3-2.1.654-4.164,1.091-6.135Zm33.092.029a1.938,1.938,0,0,0-2.418.944c.1-.289.11-.677.206-.973H83.862q-.453,3.16-1.091,6.135h1.3a13.881,13.881,0,0,1,.295-2.212c.271-1.7.669-3.57,2.655-3.008C87.083,69.727,87.111,69.4,87.194,69.13Zm-14.246,4.66a3.087,3.087,0,0,1-.118-1.18,4.124,4.124,0,0,1,.855-2.359c.661-.648,1.967-.541,3.008-.177.032-.351.1-.664.147-1-1.708-.279-3.329-.105-4.188.8a5.037,5.037,0,0,0-1,4.188c.456,1.494,2.5,1.575,4.159,1,.073-.3.112-.635.177-.944C75.082,74.585,73.351,74.83,72.949,73.791ZM72.241,69.1a1.946,1.946,0,0,0-2.418,1.032c.093-.32.131-.694.206-1.032H68.908c-.274,2.125-.678,4.12-1.062,6.135h1.268a24.114,24.114,0,0,1,.649-3.952,1.769,1.769,0,0,1,2.33-1.268C72.11,69.678,72.207,69.421,72.241,69.1ZM51.8,66.623c-.181,1.176-.385,2.328-.59,3.48-1.314.014-2.655.065-3.923-.03.239-1.127.411-2.322.649-3.451H46.522c-.507,2.875-.968,5.8-1.534,8.612h1.445c.227-1.445.439-2.9.737-4.277a35.224,35.224,0,0,1,3.893.03c-.244,1.427-.539,2.8-.767,4.247h1.445c.464-2.918.954-5.81,1.534-8.612Zm3.6,1.3c.253-.174.578-.967.206-1.3a.7.7,0,0,0-.59-.088.713.713,0,0,0-.5.265c-.16.218-.307.876-.059,1.121s.783.111.944,0Z" transform="translate(-39.857 -58.867)" fill="#fff"/>
    </g>
  </g>
</svg>
