<svg id="Grupo_2208" data-name="Grupo 2208" xmlns="http://www.w3.org/2000/svg" width="63.701" height="39.811" viewBox="0 0 63.701 39.811">
  <rect id="Retângulo_2591" data-name="Retângulo 2591" width="63.701" height="39.811" rx="4.18"/>
  <g id="Grupo_840" data-name="Grupo 840" transform="translate(8.844 11.381)">
    <path id="Caminho_4578" data-name="Caminho 4578" d="M126.5,217.562a5.014,5.014,0,0,1,6.5,3.755l3.434-.7a8.525,8.525,0,0,0-11.042-6.376Z" transform="translate(-119.575 -213.805)" fill="#fff200"/>
    <path id="Caminho_4579" data-name="Caminho 4579" d="M70.972,247.582l2.322-2.626a5.007,5.007,0,0,1,0-7.5L70.97,234.83a8.513,8.513,0,0,0,0,12.752Z" transform="translate(-68.098 -232.696)" fill="#00a4e0"/>
    <path id="Caminho_4580" data-name="Caminho 4580" d="M279.889,258a5.2,5.2,0,0,0-4.432,8.031l9.41-4.022A5.2,5.2,0,0,0,279.889,258m-3.119,5.517a2.737,2.737,0,0,1-.018-.368,3.058,3.058,0,0,1,5.394-1.928Z" transform="translate(-253.657 -253.51)" fill="#fff"/>
    <path id="Caminho_4581" data-name="Caminho 4581" d="M387.123,234.91v10.032l1.741.722-.823,1.979-1.725-.716a1.951,1.951,0,0,1-.848-.71,2.242,2.242,0,0,1-.329-1.25V234.91Z" transform="translate(-352.96 -232.768)" fill="#fff"/>
    <path id="Caminho_4582" data-name="Caminho 4582" d="M460.547,260.261a3.06,3.06,0,0,1,3.965,2.29l2.1-.427a5.2,5.2,0,0,0-6.739-3.892Z" transform="translate(-420.11 -253.483)" fill="#fff"/>
    <path id="Caminho_4583" data-name="Caminho 4583" d="M426.651,278.6l1.421-1.6a3.058,3.058,0,0,1,0-4.579l-1.421-1.6a5.2,5.2,0,0,0,0,7.783Z" transform="translate(-388.687 -265.034)" fill="#fff"/>
    <path id="Caminho_4584" data-name="Caminho 4584" d="M132.962,307.55a5.013,5.013,0,0,1-6.5,3.746l-1.116,3.325a8.525,8.525,0,0,0,11.044-6.366Z" transform="translate(-119.54 -298.036)" fill="#ef4123"/>
    <path id="Caminho_4585" data-name="Caminho 4585" d="M303.452,330.69a3.038,3.038,0,0,1-3.765.406l-1.137,1.812a5.187,5.187,0,0,0,6.394-.68Z" transform="translate(-275.162 -318.827)" fill="#fff"/>
    <path id="Caminho_4586" data-name="Caminho 4586" d="M464.485,315.21a3.06,3.06,0,0,1-3.966,2.287l-.679,2.03a5.2,5.2,0,0,0,6.741-3.886Z" transform="translate(-420.082 -304.918)" fill="#fff"/>
  </g>
</svg>
