<svg xmlns="http://www.w3.org/2000/svg" width="18" height="31.713" viewBox="0 0 18 31.713">
  <path id="facebook" d="M11.618,31.713H6.54A1.54,1.54,0,0,1,5,30.175V18.72H2.038A1.54,1.54,0,0,1,.5,17.181V12.273a1.54,1.54,0,0,1,1.538-1.538H5V8.276a8.369,8.369,0,0,1,2.213-6A7.971,7.971,0,0,1,13.091,0l3.873.006A1.541,1.541,0,0,1,18.5,1.544V6.1A1.54,1.54,0,0,1,16.962,7.64H14.354c-.8,0-1,.159-1.041.208-.071.081-.156.31-.156.943v1.942h3.609a1.564,1.564,0,0,1,.761.193,1.544,1.544,0,0,1,.791,1.346l0,4.909a1.54,1.54,0,0,1-1.538,1.538H13.157V30.175a1.54,1.54,0,0,1-1.539,1.538ZM6.861,29.854H11.3V17.887a1.028,1.028,0,0,1,1.027-1.027h4.133l0-4.267H12.324A1.028,1.028,0,0,1,11.3,11.566V8.792a3.166,3.166,0,0,1,.622-2.173,3.151,3.151,0,0,1,2.434-.837h2.287V1.865L13.09,1.859c-3.842,0-6.229,2.459-6.229,6.418v3.29a1.028,1.028,0,0,1-1.027,1.027H2.359V16.86H5.834a1.028,1.028,0,0,1,1.027,1.027Zm10.1-27.989h0Zm0,0" transform="translate(-0.5 0)" fill="#ddd"/>
</svg>
