<svg xmlns="http://www.w3.org/2000/svg" width="14.645" height="14.645" viewBox="0 0 14.645 14.645"><g transform="translate(6.755 3.397)"><path d="M239.345,124l-2.042-1.531v-3.12a.567.567,0,0,0-1.134,0v3.4a.566.566,0,0,0,.227.454l2.269,1.7a.567.567,0,0,0,.681-.908Z" transform="translate(-236.169 -118.779)" fill="$secondaryColor"/></g><path d="M7.322,0a7.322,7.322,0,1,0,7.322,7.322A7.33,7.33,0,0,0,7.322,0Zm0,13.511a6.188,6.188,0,1,1,6.188-6.188A6.2,6.2,0,0,1,7.322,13.511Z" fill="$secondaryColor"/></svg>
