<svg xmlns="http://www.w3.org/2000/svg" width="28.935" height="28.935" viewBox="0 0 28.935 28.935">
  <path id="layer1" d="M27.316,2H4.619A2.627,2.627,0,0,0,2,4.619v22.7a2.627,2.627,0,0,0,2.619,2.619H16.841V18.587H13.785V14.222h3.056V12.04c.071-2.447.7-4.624,4.853-4.8h3.44v4.327H22.226a1.375,1.375,0,0,0-1.457,1.348v1.309h4.365l-.745,4.365h-3.62V29.935h6.548a2.627,2.627,0,0,0,2.619-2.619V4.619A2.627,2.627,0,0,0,27.316,2Z" transform="translate(-1.5 -1.5)" fill="none" stroke="#909090" stroke-linecap="round" stroke-linejoin="round" stroke-miterlimit="10" stroke-width="1"/>
</svg>
