<svg xmlns="http://www.w3.org/2000/svg" width="21.254" height="21.254" viewBox="0 0 21.254 21.254"><path d="M21.19,6.245a7.8,7.8,0,0,0-.494-2.58A5.208,5.208,0,0,0,19.47,1.784,5.21,5.21,0,0,0,17.588.557a7.8,7.8,0,0,0-2.58-.493C13.875.012,13.513,0,10.627,0S7.379.012,6.245.064a7.8,7.8,0,0,0-2.58.494A5.208,5.208,0,0,0,1.783,1.784,5.209,5.209,0,0,0,.557,3.666a7.8,7.8,0,0,0-.493,2.58C.012,7.379,0,7.741,0,10.627s.012,3.248.064,4.382a7.8,7.8,0,0,0,.494,2.58A5.208,5.208,0,0,0,1.784,19.47,5.207,5.207,0,0,0,3.666,20.7a7.8,7.8,0,0,0,2.58.494c1.133.052,1.5.064,4.381.064s3.248-.012,4.381-.064a7.8,7.8,0,0,0,2.58-.494A5.433,5.433,0,0,0,20.7,17.588a7.8,7.8,0,0,0,.494-2.58c.052-1.133.064-1.5.064-4.381s-.012-3.248-.064-4.381Zm-1.913,8.676a5.88,5.88,0,0,1-.366,1.973,3.519,3.519,0,0,1-2.017,2.017,5.88,5.88,0,0,1-1.973.366c-1.12.051-1.456.062-4.294.062s-3.174-.011-4.294-.062a5.882,5.882,0,0,1-1.973-.366,3.293,3.293,0,0,1-1.222-.8,3.292,3.292,0,0,1-.8-1.222,5.88,5.88,0,0,1-.366-1.973c-.051-1.12-.062-1.457-.062-4.294s.011-3.174.062-4.294a5.884,5.884,0,0,1,.366-1.973,3.3,3.3,0,0,1,.8-1.222,3.29,3.29,0,0,1,1.222-.795,5.879,5.879,0,0,1,1.973-.366c1.12-.051,1.457-.062,4.294-.062h0c2.838,0,3.174.011,4.294.062a5.881,5.881,0,0,1,1.973.366,3.3,3.3,0,0,1,1.222.795,3.29,3.29,0,0,1,.795,1.222,5.874,5.874,0,0,1,.366,1.973c.051,1.12.062,1.457.062,4.294s-.011,3.174-.062,4.294Zm0,0" transform="translate(0 0)" fill="white"/><path d="M130,124.539A5.457,5.457,0,1,0,135.453,130,5.457,5.457,0,0,0,130,124.539Zm0,9A3.542,3.542,0,1,1,133.538,130,3.542,3.542,0,0,1,130,133.538Zm0,0" transform="translate(-119.369 -119.369)" fill="white"/><path d="M364.48,89.9a1.275,1.275,0,1,1-1.275-1.275A1.275,1.275,0,0,1,364.48,89.9Zm0,0" transform="translate(-346.905 -84.946)" fill="white"/></svg>
