<svg xmlns="http://www.w3.org/2000/svg" width="85.633" height="80.281" viewBox="0 0 85.633 80.281"><g transform="translate(0)"><g transform="translate(51.179 6.69)"><g transform="translate(0 0)"><path d="M307.673,56a1.673,1.673,0,1,0,1.672,1.673A1.673,1.673,0,0,0,307.673,56Z" transform="translate(-306 -56)"/></g></g><g transform="translate(24.419 6.69)"><g transform="translate(0 0)"><path d="M147.672,56a1.673,1.673,0,1,0,1.673,1.673A1.673,1.673,0,0,0,147.672,56Z" transform="translate(-146 -56)"/></g></g><g transform="translate(17.729 6.69)"><g transform="translate(0 0)"><path d="M107.673,56a1.673,1.673,0,1,0,1.672,1.673A1.673,1.673,0,0,0,107.673,56Z" transform="translate(-106 -56)"/></g></g><g transform="translate(11.039 6.69)"><g transform="translate(0 0)"><path d="M67.673,56a1.673,1.673,0,1,0,1.673,1.673A1.673,1.673,0,0,0,67.673,56Z" transform="translate(-66 -56)"/></g></g><g transform="translate(0 0)"><g transform="translate(0 0)"><path d="M80.615,16H5.018A5.023,5.023,0,0,0,0,21.018V91.263a5.023,5.023,0,0,0,5.018,5.018h75.6a5.023,5.023,0,0,0,5.018-5.018V21.018A5.023,5.023,0,0,0,80.615,16Zm1.673,75.263a1.674,1.674,0,0,1-1.673,1.673H5.018a1.674,1.674,0,0,1-1.673-1.673V32.725H82.288Zm0-61.883H3.345V21.018a1.674,1.674,0,0,1,1.673-1.673h75.6a1.674,1.674,0,0,1,1.673,1.673Z" transform="translate(0 -16)"/></g></g><g transform="translate(24.419 23.415)"><path d="M177.778,172.725h-1.673v-5.018a11.708,11.708,0,0,0-23.415,0v5.018h-1.673A5.023,5.023,0,0,0,146,177.743v20.07a5.023,5.023,0,0,0,5.017,5.018h26.76a5.023,5.023,0,0,0,5.017-5.018v-20.07A5.023,5.023,0,0,0,177.778,172.725Zm-21.743-5.018a8.363,8.363,0,0,1,16.725,0v5.018H156.035Zm23.415,30.105a1.674,1.674,0,0,1-1.673,1.672h-26.76a1.674,1.674,0,0,1-1.672-1.672v-20.07a1.674,1.674,0,0,1,1.672-1.673h26.76a1.674,1.674,0,0,1,1.673,1.673Z" transform="translate(-146 -156)"/></g><g transform="translate(57.869 6.69)"><g transform="translate(0 0)"><path d="M362.056,56H347.673a1.673,1.673,0,1,0,0,3.345h14.384a1.673,1.673,0,0,0,0-3.345Z" transform="translate(-346 -56)"/></g></g><g transform="translate(37.799 46.83)"><g transform="translate(0 0)"><path d="M231.018,296a5.017,5.017,0,0,0-1.673,9.747v5.305a1.673,1.673,0,1,0,3.345,0v-5.305A5.017,5.017,0,0,0,231.018,296Zm0,6.69a1.673,1.673,0,1,1,1.673-1.673A1.675,1.675,0,0,1,231.018,302.69Z" transform="translate(-226 -296)"/></g></g></g></svg>