<svg xmlns="http://www.w3.org/2000/svg" width="23.431" height="28.405" viewBox="0 0 23.431 28.405">
  <g id="user-3" transform="translate(-3.049)">
    <path id="Caminho_11859" data-name="Caminho 11859" d="M16.166,16H13.452c-5.7,0-10.4,5.2-10.4,11.5v1.1A3.223,3.223,0,0,0,6.125,32H23.4a3.223,3.223,0,0,0,3.076-3.4V27.5C26.569,21.2,21.865,16,16.166,16ZM10.557,30c-4.342,0-5.88-2.3-5.518-4.3.814-4.4,4.252-7.7,8.413-7.7h2.714a8.589,8.589,0,0,1,7.147,4.2C25.3,25.3,18.156,30,10.557,30Z" transform="translate(0 -3.595)" fill="#fff"/>
    <path id="Caminho_11860" data-name="Caminho 11860" d="M14.814,14c3.212,0,5.765-3.1,5.765-7s-2.553-7-5.765-7S9.049,3.1,9.049,7,11.6,14,14.814,14Zm0-12a4.435,4.435,0,0,1,3.953,3.5c.824,3-4.612,7.2-6.424,5.5A5.67,5.67,0,0,1,10.7,7C10.7,4.2,12.508,2,14.814,2Z" fill="#fff"/>
  </g>
</svg>
