<svg xmlns="http://www.w3.org/2000/svg" width="67.149" height="51.102" viewBox="0 0 67.149 51.102">
  <path id="União_63" data-name="União 63" 
  d="M8.211,51.1A8.218,8.218,0,0,1,0,42.891V8.212A8.218,8.218,0,0,1,8.211,0h50.74a8.21,8.21,0,0,1,8.2,8.225V42.891A8.218,8.218,0,0,1,58.938,51.1ZM3.751,8.225V42.891a4.466,4.466,0,0,0,4.46,4.46h50.74a4.466,4.466,0,0,0,4.461-4.46H63.4V8.225a4.465,4.465,0,0,0-4.46-4.46H8.211A4.465,4.465,0,0,0,3.751,8.225ZM56.256,43.5l-16.7-15.866-4.682,4.2a1.872,1.872,0,0,1-2.5.013l-4.557-4.071-16.8,15.713a1.881,1.881,0,0,1-1.278.5,1.922,1.922,0,0,1-1.376-.6,1.884,1.884,0,0,1,.084-2.654L24.995,25.246,8.378,10.393a1.879,1.879,0,0,1,2.5-2.806L28.858,23.675a2.924,2.924,0,0,1,.305.264c0,.014.014.027.028.042l4.417,3.945L56.256,7.6a1.879,1.879,0,1,1,2.515,2.792L42.349,25.121,58.84,40.779A1.877,1.877,0,0,1,56.256,43.5Z" fill="#ffffff"/>
</svg>
