<svg xmlns="http://www.w3.org/2000/svg" width="28.845" height="28.941" viewBox="0 0 28.845 28.941">
  <g id="icon_whatsapp" transform="translate(0.62 0.501)">
    <path id="layer2" d="M15.162,2.01A13.86,13.86,0,0,0,3.492,22.141L2.021,29.28a.539.539,0,0,0,.652.634l7-1.658A13.856,13.856,0,1,0,15.162,2.01ZM23.51,23.52" transform="translate(-1.984 -1.993)" fill="none" stroke="#909090" stroke-linecap="round" stroke-linejoin="round" stroke-miterlimit="10" stroke-width="1"/>
    <path id="layer1" d="M30.453,27.091l-2.684-.771a1,1,0,0,0-.99.261l-.656.669a.978.978,0,0,1-1.063.224A14.285,14.285,0,0,1,20.438,23.4a.978.978,0,0,1,.077-1.084l.573-.741a1,1,0,0,0,.123-1.016L20.083,18a1,1,0,0,0-1.563-.358,4.513,4.513,0,0,0-1.745,2.663c-.19,1.881.616,4.251,3.665,7.1,3.523,3.288,6.344,3.725,8.181,3.278a4.511,4.511,0,0,0,2.4-2.092,1,1,0,0,0-.567-1.5Z" transform="translate(-9.874 -10.231)" fill="none" stroke="#909090" stroke-linecap="round" stroke-linejoin="round" stroke-miterlimit="10" stroke-width="1"/>
  </g>
</svg>
