<svg xmlns="http://www.w3.org/2000/svg" width="19.287" height="23.902" viewBox="0 0 19.287 23.902">
  <path id="ic_lock_24px" d="M20.876,8.967H19.671V6.691A5.868,5.868,0,0,0,13.644,1,5.868,5.868,0,0,0,7.616,6.691V8.967H6.411A2.353,2.353,0,0,0,4,11.244V22.625A2.353,2.353,0,0,0,6.411,24.9H20.876a2.353,2.353,0,0,0,2.411-2.276V11.244A2.353,2.353,0,0,0,20.876,8.967ZM13.644,19.211a2.28,2.28,0,1,1,2.411-2.276A2.353,2.353,0,0,1,13.644,19.211ZM17.38,8.967H9.907V6.691a3.64,3.64,0,0,1,3.737-3.528A3.64,3.64,0,0,1,17.38,6.691Z" transform="translate(-4 -1)" fill="#fff"/>
</svg>
