<svg id="Grupo_2239" data-name="Grupo 2239" xmlns="http://www.w3.org/2000/svg" width="27" height="25.875" viewBox="0 0 27 25.875">
  <path id="Caminho_11839" data-name="Caminho 11839" d="M7,21.25A2.25,2.25,0,1,1,9.25,23.5,2.25,2.25,0,0,1,7,21.25Z" transform="translate(0.875 2.375)" fill="#000000" fill-rule="evenodd"/>
  <path id="Caminho_11840" data-name="Caminho 11840" d="M18,21.25a2.25,2.25,0,1,1,2.25,2.25A2.25,2.25,0,0,1,18,21.25Z" transform="translate(2.25 2.375)" fill="#000000" fill-rule="evenodd"/>
  <path id="Caminho_11841" data-name="Caminho 11841" d="M0,1.125A1.125,1.125,0,0,1,1.125,0h4.5a1.125,1.125,0,0,1,1.1.9l.945,4.721h18.2A1.125,1.125,0,0,1,26.98,6.961l-1.8,9.447a3.375,3.375,0,0,1-3.363,2.717H10.9a3.375,3.375,0,0,1-3.363-2.716h0L5.657,7.019q-.011-.047-.019-.095L4.7,2.25H1.125A1.125,1.125,0,0,1,0,1.125Zm8.123,6.75,1.62,8.095a1.125,1.125,0,0,0,1.125.906H21.847a1.125,1.125,0,0,0,1.124-.9l1.544-8.1Z" fill="#000000" fill-rule="evenodd"/>
</svg>
