<svg xmlns="http://www.w3.org/2000/svg" width="19.142" height="22.676" viewBox="0 0 19.142 22.676"><g transform="translate(-7.067)"><g transform="translate(7.067)"><path d="M25.878,39.471a2.418,2.418,0,0,0-2.069-1.881,64.311,64.311,0,0,0-7.167-.265,64.331,64.331,0,0,0-7.168.265A2.417,2.417,0,0,0,7.4,39.471,20.5,20.5,0,0,0,7.067,44,20.492,20.492,0,0,0,7.4,48.521,2.417,2.417,0,0,0,9.469,50.4a64.315,64.315,0,0,0,7.168.265,64.268,64.268,0,0,0,7.168-.265,2.418,2.418,0,0,0,2.069-1.881A20.508,20.508,0,0,0,26.209,44,20.522,20.522,0,0,0,25.878,39.471ZM12.527,40.6H11.142v7.362H9.855V40.6H8.494V39.389h4.033Zm3.5,7.362H14.865v-.7a1.854,1.854,0,0,1-1.322.784.71.71,0,0,1-.745-.474,3.258,3.258,0,0,1-.1-.949V41.573h1.157v4.7a3.6,3.6,0,0,0,.011.45c.028.18.116.271.271.271.232,0,.475-.179.731-.542V41.573h1.158v6.384Zm4.395-1.916a5.1,5.1,0,0,1-.117,1.286.916.916,0,0,1-.924.717,1.576,1.576,0,0,1-1.2-.706v.619H17.024V39.389H18.18v2.8a1.567,1.567,0,0,1,1.2-.692.915.915,0,0,1,.924.72,4.9,4.9,0,0,1,.117,1.283Zm4.366-1.065H22.469v1.132c0,.591.193.886.591.886a.5.5,0,0,0,.517-.464,7.279,7.279,0,0,0,.026-.784h1.18v.169c0,.373-.014.63-.025.745a1.648,1.648,0,0,1-.27.693,1.6,1.6,0,0,1-1.4.692,1.656,1.656,0,0,1-1.4-.654,2.473,2.473,0,0,1-.371-1.5V43.654a2.485,2.485,0,0,1,.358-1.5A1.644,1.644,0,0,1,23.06,41.5a1.607,1.607,0,0,1,1.365.654,2.509,2.509,0,0,1,.358,1.5v1.322Z" transform="translate(-7.067 -27.991)" fill="#ffffff"/><path d="M69.237,58.163q-.58,0-.58.886v.591h1.157v-.591C69.813,58.458,69.62,58.163,69.237,58.163Z" transform="translate(-53.255 -43.618)" fill="#ffffff"/><path d="M52.082,58.163a.829.829,0,0,0-.577.281v3.891a.825.825,0,0,0,.577.285c.334,0,.5-.285.5-.862V59.034C52.585,58.458,52.416,58.163,52.082,58.163Z" transform="translate(-40.392 -43.618)" fill="#ffffff"/><path d="M53.827,15.36a1.878,1.878,0,0,0,1.335-.792v.7h1.169V8.82H55.162v4.931c-.259.366-.5.547-.738.547-.157,0-.249-.093-.274-.274a2.712,2.712,0,0,1-.014-.454V8.82H52.97v5.1a3.259,3.259,0,0,0,.1.959A.718.718,0,0,0,53.827,15.36Z" transform="translate(-41.491 -6.614)" fill="#ffffff"/><path d="M18.981,5.151V8.657h1.3V5.151L21.837,0H20.526l-.885,3.4L18.721,0H17.357c.273.8.558,1.609.831,2.412A21.327,21.327,0,0,1,18.981,5.151Z" transform="translate(-14.784)" fill="#ffffff"/><path d="M37.04,15.126a1.594,1.594,0,0,0,1.364-.66,2.524,2.524,0,0,0,.363-1.517V10.689A2.528,2.528,0,0,0,38.4,9.17a1.733,1.733,0,0,0-2.725,0,2.507,2.507,0,0,0-.366,1.52v2.259a2.5,2.5,0,0,0,.366,1.517A1.593,1.593,0,0,0,37.04,15.126Zm-.558-4.671c0-.6.181-.895.558-.895s.557.3.557.895v2.714c0,.6-.181.9-.557.9s-.558-.3-.558-.9Z" transform="translate(-28.249 -6.38)" fill="#ffffff"/></g></g></svg>
