<svg id="icon-search" xmlns="http://www.w3.org/2000/svg" width="27.855" height="27.855" viewBox="0 0 27.855 27.855">
  <path id="Caminho_11844" data-name="Caminho 11844" d="M13,3.862A9.142,9.142,0,1,0,22.146,13,9.142,9.142,0,0,0,13,3.862ZM1.25,13A11.754,11.754,0,1,1,13,24.758,11.754,11.754,0,0,1,1.25,13Z" transform="translate(-1.25 -1.25)" fill="#fff" fill-rule="evenodd"/>
  <path id="Caminho_11845" data-name="Caminho 11845" d="M10.2,10.2a1.428,1.428,0,0,1,2.019,0l6.21,6.21a1.427,1.427,0,0,1-2.019,2.019l-6.21-6.21A1.428,1.428,0,0,1,10.2,10.2Z" transform="translate(9.008 9.008)" fill="#fff" fill-rule="evenodd"/>
</svg>
