<svg xmlns="http://www.w3.org/2000/svg" width="20.309" height="18.862" viewBox="0 0 20.309 18.862"><path d="M22.424,48.793c-.5-.252-2.955-1.46-3.415-1.622s-.793-.252-1.126.252-1.288,1.622-1.586,1.964-.586.378-1.081.126c-2.937-1.469-4.865-2.622-6.8-5.946-.514-.883.514-.82,1.469-2.73a.926.926,0,0,0-.045-.874c-.126-.252-1.126-2.712-1.541-3.712-.405-.973-.82-.838-1.126-.856-.288-.018-.622-.018-.955-.018A1.851,1.851,0,0,0,4.883,36a5.616,5.616,0,0,0-1.748,4.171,9.79,9.79,0,0,0,2.036,5.171c.252.333,3.523,5.379,8.541,7.55,3.171,1.369,4.415,1.487,6,1.252.964-.144,2.955-1.207,3.369-2.378a4.18,4.18,0,0,0,.288-2.378C23.253,49.162,22.919,49.036,22.424,48.793Z" transform="translate(-3.135 -35.378)" fill="#fff"/></svg>